<svg xmlns="http://www.w3.org/2000/svg" viewBox="0 0 200 200" role="img" aria-label="Aquarius ISFP portrait"><metadata>{"id":"aquarius-isfp","features":{"motif":"circuit-lines","palette":"aquarius","headpiece":"neon-visor","head":"oval","hair":"braid","eyes":"soft","mouth":"soft","garment":"paint-splashed smock","held":"paintbrush","skin":"tan","detail":"earrings"}}</metadata><defs><radialGradient id="bg" cx="50%" cy="38%" r="75%"><stop offset="0" stop-color="#06262a"/><stop offset="1" stop-color="#020b0d"/></radialGradient><radialGradient id="aura" cx="50%" cy="50%" r="50%"><stop offset="0" stop-color="#7ffff5" stop-opacity=".45"/><stop offset="1" stop-color="#7ffff5" stop-opacity="0"/></radialGradient><radialGradient id="skin" cx="42%" cy="35%" r="70%"><stop offset="0" stop-color="#b97d56"/><stop offset="1" stop-color="#955c3c"/></radialGradient><linearGradient id="rim" x1="0" y1="0" x2="1" y2="0"><stop offset="0" stop-color="#7ffff5" stop-opacity=".0"/><stop offset=".85" stop-color="#7ffff5" stop-opacity="0"/><stop offset="1" stop-color="#7ffff5" stop-opacity=".35"/></linearGradient><linearGradient id="hair" x1="0" y1="0" x2="0" y2="1"><stop offset="0" stop-color="#4d5965"/><stop offset="1" stop-color="#131e2a"/></linearGradient><clipPath id="face"><path d="M70 90C70 66 84 55 100 55C116 55 130 66 130 90C130 112 116 129 100 129C84 129 70 112 70 90Z"/></clipPath><radialGradient id="vig" cx="50%" cy="45%" r="70%"><stop offset=".6" stop-color="#000" stop-opacity="0"/><stop offset="1" stop-color="#000" stop-opacity=".55"/></radialGradient></defs><g><rect width="200" height="200" fill="url(#bg)"/><g fill="none" stroke="#38e1d8" stroke-opacity=".28" stroke-width="1.4"><path d="M0 40H30L44 54H60M200 30H170L156 44V70M0 130H20L34 116M200 120H176L164 132"/></g><g fill="#7ffff5" opacity=".5"><circle cx="60" cy="54" r="2.4"/><circle cx="156" cy="70" r="2.4"/><circle cx="34" cy="116" r="2.4"/><circle cx="164" cy="132" r="2.4"/></g><g opacity=".7"><path d="M16.2 22.6L23.8 19.2" stroke="#7ffff5" stroke-opacity=".5" stroke-width=".8"/><path d="M23.8 19.2L31.3 24.3" stroke="#7ffff5" stroke-opacity=".5" stroke-width=".8"/><path d="M31.3 24.3L37.2 20.9" stroke="#7ffff5" stroke-opacity=".5" stroke-width=".8"/><path d="M37.2 20.9L43.1 27.6" stroke="#7ffff5" stroke-opacity=".5" stroke-width=".8"/><path d="M43.1 27.6L39.7 36.0" stroke="#7ffff5" stroke-opacity=".5" stroke-width=".8"/><path d="M39.7 36.0L45.6 43.6" stroke="#7ffff5" stroke-opacity=".5" stroke-width=".8"/><path d="M39.7 36.0L33.0 40.2" stroke="#7ffff5" stroke-opacity=".5" stroke-width=".8"/><circle cx="16.2" cy="22.6" r="1.4" fill="#fff"/><circle cx="23.8" cy="19.2" r="1.4" fill="#fff"/><circle cx="31.3" cy="24.3" r="1.4" fill="#fff"/><circle cx="37.2" cy="20.9" r="1.4" fill="#fff"/><circle cx="43.1" cy="27.6" r="1.4" fill="#fff"/><circle cx="39.7" cy="36.0" r="1.4" fill="#fff"/><circle cx="45.6" cy="43.6" r="1.4" fill="#fff"/><circle cx="33.0" cy="40.2" r="1.4" fill="#fff"/></g><circle cx="100" cy="96" r="78" fill="url(#aura)"/><g fill="#16222e"><path d="M64 98C62 58 84 44 100 44C118 44 138 58 136 98L132 106L68 106Z"/></g><path d="M8 200C14 166 46 146 84 140L100 142L116 140C154 146 186 166 192 200Z" fill="#d9cfb8"/><path d="M80 142Q100 160 120 142" fill="none" stroke="#a79a7c" stroke-width="3"/><g fill="#38e1d8" opacity=".85"><circle cx="68" cy="174" r="4"/><circle cx="76" cy="182" r="2"/><circle cx="132" cy="166" r="3.4"/><circle cx="118" cy="186" r="2.4"/></g><circle cx="88" cy="190" r="3" fill="#ff7aa8"/><circle cx="144" cy="186" r="2.4" fill="#ffe27a"/><path d="M8 200C14 166 46 146 84 140L100 142L116 140C154 146 186 166 192 200" fill="none" stroke="#7ffff5" stroke-opacity=".35" stroke-width="1.5"/><path d="M89 116V142Q100 148 111 142V116Z" fill="#955c3c"/><path d="M89 126Q100 136 111 126V132Q100 140 89 132Z" fill="#000" opacity=".15"/><ellipse cx="69.5" cy="97" rx="5" ry="8" fill="#955c3c"/><ellipse cx="130.5" cy="97" rx="5" ry="8" fill="#955c3c"/><path d="M70 90C70 66 84 55 100 55C116 55 130 66 130 90C130 112 116 129 100 129C84 129 70 112 70 90Z" fill="url(#skin)"/><path d="M70 90C70 66 84 55 100 55C116 55 130 66 130 90C130 112 116 129 100 129C84 129 70 112 70 90Z" fill="url(#rim)"/><ellipse cx="81" cy="107" rx="6" ry="3.4" fill="#7f3c35" opacity=".18"/><ellipse cx="119" cy="107" rx="6" ry="3.4" fill="#7f3c35" opacity=".18"/><clipPath id="e88"><path d="M80 95Q88 88.75 96 95Q88 100 80 95Z"/></clipPath><path d="M80 95Q88 88.75 96 95Q88 100 80 95Z" fill="#f5f1ea"/><g clip-path="url(#e88)"><circle cx="88" cy="95.5" r="3.4" fill="#38e1d8"/><circle cx="88" cy="95.5" r="1.53" fill="#0b0b12"/><circle cx="89.36" cy="94.2" r="1.088" fill="#fff"/><rect x="80" y="88.5" width="16" height="2.6" fill="#b97d56"/></g><path d="M79.5 95Q88 91.09 96.5 95" fill="none" stroke="#1a1012" stroke-width="1.8" stroke-linecap="round"/><clipPath id="e112"><path d="M104 95Q112 88.75 120 95Q112 100 104 95Z"/></clipPath><path d="M104 95Q112 88.75 120 95Q112 100 104 95Z" fill="#f5f1ea"/><g clip-path="url(#e112)"><circle cx="112" cy="95.5" r="3.4" fill="#38e1d8"/><circle cx="112" cy="95.5" r="1.53" fill="#0b0b12"/><circle cx="113.36" cy="94.2" r="1.088" fill="#fff"/><rect x="104" y="88.5" width="16" height="2.6" fill="#b97d56"/></g><path d="M103.5 95Q112 91.09 120.5 95" fill="none" stroke="#1a1012" stroke-width="1.8" stroke-linecap="round"/><path d="M80 86Q88 81.5 95 84" fill="none" stroke="#121b26" stroke-width="1.8" stroke-linecap="round"/><path d="M120 86Q112 81.5 105 84" fill="none" stroke="#121b26" stroke-width="1.8" stroke-linecap="round"/><path d="M80 94l-2.5-2M120 94l2.5-2" stroke="#1a1012" stroke-width="1.3"/><path d="M100 99Q98 106 96 108Q99 110 102 108" fill="none" stroke="#955c3c" stroke-width="1.6" stroke-linecap="round"/><path d="M95 115Q100 117 105 115" fill="none" stroke="#7f3c35" stroke-width="2.2" stroke-linecap="round"/><g fill="#9ff7f1"><circle cx="69" cy="110" r="2.6"/><path d="M69 112l-3 7h6z"/><circle cx="131" cy="110" r="2.6"/><path d="M131 112l-3 7h6z"/></g><g clip-path="url(#face)"><g fill="#000" opacity=".22" transform="translate(0 3)"><path d="M67 90C66 62 84 49 100 49C118 49 134 62 133 90C128 76 118 66 104 64C88 66 74 76 67 90Z"/></g></g><g fill="url(#hair)"><path d="M67 90C66 62 84 49 100 49C118 49 134 62 133 90C128 76 118 66 104 64C88 66 74 76 67 90Z"/></g><g fill="url(#hair)" stroke="#131d29" stroke-width="1"><g><ellipse cx="126" cy="112" rx="8" ry="8.5"/><ellipse cx="127.6" cy="125" rx="8" ry="8.5"/><ellipse cx="129.2" cy="138" rx="8" ry="8.5"/><ellipse cx="130.8" cy="151" rx="8" ry="8.5"/><ellipse cx="132.4" cy="164" rx="8" ry="8.5"/><ellipse cx="134" cy="177" rx="8" ry="8.5"/></g></g><rect x="70" y="80" width="60" height="9" rx="4.5" fill="#38e1d8" opacity=".3"/><rect x="70" y="80" width="60" height="9" rx="4.5" fill="none" stroke="#7ffff5" stroke-width="1.6"/><path d="M76 84.5H124" stroke="#7ffff5" stroke-width="1" stroke-dasharray="3 2"/><path d="M130 82L142 60" stroke="#9ff7f1" stroke-width="1.6"/><circle cx="142" cy="58" r="3" fill="#7ffff5"/><g transform="translate(152 168) rotate(-35)"><rect x="-2.5" y="0" width="5" height="34" rx="2.5" fill="#7a4a2a"/><rect x="-3.5" y="-6" width="7" height="8" fill="#c9ced8"/><path d="M-4 -6Q-5 -18 0 -24Q5 -18 4 -6Z" fill="#38e1d8"/></g><circle cx="134" cy="186" r="4" fill="#38e1d8" opacity=".7"/><rect width="200" height="200" fill="url(#vig)"/><circle cx="100" cy="100" r="97" fill="none" stroke="#9ff7f1" stroke-opacity=".35" stroke-width="1.5"/></g></svg>