<svg xmlns="http://www.w3.org/2000/svg" viewBox="0 0 200 200" role="img" aria-label="Aquarius ISTJ portrait"><metadata>{"id":"aquarius-istj","features":{"motif":"circuit-lines","palette":"aquarius","headpiece":"neon-visor","head":"angular","hair":"crop","eyes":"steady","mouth":"flat","garment":"buttoned uniform","held":"ledger and quill","skin":"light","detail":"face paint"}}</metadata><defs><radialGradient id="bg" cx="50%" cy="38%" r="75%"><stop offset="0" stop-color="#06262a"/><stop offset="1" stop-color="#020b0d"/></radialGradient><radialGradient id="aura" cx="50%" cy="50%" r="50%"><stop offset="0" stop-color="#7ffff5" stop-opacity=".45"/><stop offset="1" stop-color="#7ffff5" stop-opacity="0"/></radialGradient><radialGradient id="skin" cx="42%" cy="35%" r="70%"><stop offset="0" stop-color="#eebf9d"/><stop offset="1" stop-color="#cf9a78"/></radialGradient><linearGradient id="rim" x1="0" y1="0" x2="1" y2="0"><stop offset="0" stop-color="#7ffff5" stop-opacity=".0"/><stop offset=".85" stop-color="#7ffff5" stop-opacity="0"/><stop offset="1" stop-color="#7ffff5" stop-opacity=".35"/></linearGradient><linearGradient id="hair" x1="0" y1="0" x2="0" y2="1"><stop offset="0" stop-color="#53d5cc"/><stop offset="1" stop-color="#189189"/></linearGradient><clipPath id="face"><path d="M70 88C70 66 84 55 100 55C116 55 130 66 130 88L128 107L113 125Q100 131 87 125L72 107Z"/></clipPath><radialGradient id="vig" cx="50%" cy="45%" r="70%"><stop offset=".6" stop-color="#000" stop-opacity="0"/><stop offset="1" stop-color="#000" stop-opacity=".55"/></radialGradient></defs><g><rect width="200" height="200" fill="url(#bg)"/><g fill="none" stroke="#38e1d8" stroke-opacity=".28" stroke-width="1.4"><path d="M0 40H30L44 54H60M200 30H170L156 44V70M0 130H20L34 116M200 120H176L164 132"/></g><g fill="#7ffff5" opacity=".5"><circle cx="60" cy="54" r="2.4"/><circle cx="156" cy="70" r="2.4"/><circle cx="34" cy="116" r="2.4"/><circle cx="164" cy="132" r="2.4"/></g><g opacity=".7"><path d="M16.2 22.6L23.8 19.2" stroke="#7ffff5" stroke-opacity=".5" stroke-width=".8"/><path d="M23.8 19.2L31.3 24.3" stroke="#7ffff5" stroke-opacity=".5" stroke-width=".8"/><path d="M31.3 24.3L37.2 20.9" stroke="#7ffff5" stroke-opacity=".5" stroke-width=".8"/><path d="M37.2 20.9L43.1 27.6" stroke="#7ffff5" stroke-opacity=".5" stroke-width=".8"/><path d="M43.1 27.6L39.7 36.0" stroke="#7ffff5" stroke-opacity=".5" stroke-width=".8"/><path d="M39.7 36.0L45.6 43.6" stroke="#7ffff5" stroke-opacity=".5" stroke-width=".8"/><path d="M39.7 36.0L33.0 40.2" stroke="#7ffff5" stroke-opacity=".5" stroke-width=".8"/><circle cx="16.2" cy="22.6" r="1.4" fill="#fff"/><circle cx="23.8" cy="19.2" r="1.4" fill="#fff"/><circle cx="31.3" cy="24.3" r="1.4" fill="#fff"/><circle cx="37.2" cy="20.9" r="1.4" fill="#fff"/><circle cx="43.1" cy="27.6" r="1.4" fill="#fff"/><circle cx="39.7" cy="36.0" r="1.4" fill="#fff"/><circle cx="45.6" cy="43.6" r="1.4" fill="#fff"/><circle cx="33.0" cy="40.2" r="1.4" fill="#fff"/></g><circle cx="100" cy="96" r="78" fill="url(#aura)"/><g fill="#1ba198"><path d="M66 96C64 62 84 48 100 48C116 48 136 62 134 96L130 100L70 100Z"/></g><path d="M8 200C14 166 46 146 84 140L100 142L116 140C154 146 186 166 192 200Z" fill="#1f2a3a"/><path d="M86 140H114V150H86Z" fill="#2e3d52"/><path d="M100 150V200" stroke="#2e3d52" stroke-width="2"/><g fill="#38e1d8"><circle cx="104" cy="160" r="2"/><circle cx="104" cy="172" r="2"/><circle cx="104" cy="184" r="2"/></g><path d="M124 160h14v8l-7 4-7-4z" fill="#38e1d8"/><path d="M8 200C14 166 46 146 84 140L100 142L116 140C154 146 186 166 192 200" fill="none" stroke="#7ffff5" stroke-opacity=".35" stroke-width="1.5"/><path d="M89 116V142Q100 148 111 142V116Z" fill="#cf9a78"/><path d="M89 126Q100 136 111 126V132Q100 140 89 132Z" fill="#000" opacity=".15"/><ellipse cx="69.5" cy="97" rx="5" ry="8" fill="#cf9a78"/><ellipse cx="130.5" cy="97" rx="5" ry="8" fill="#cf9a78"/><path d="M70 88C70 66 84 55 100 55C116 55 130 66 130 88L128 107L113 125Q100 131 87 125L72 107Z" fill="url(#skin)"/><path d="M70 88C70 66 84 55 100 55C116 55 130 66 130 88L128 107L113 125Q100 131 87 125L72 107Z" fill="url(#rim)"/><ellipse cx="81" cy="107" rx="6" ry="3.4" fill="#b8615a" opacity=".18"/><ellipse cx="119" cy="107" rx="6" ry="3.4" fill="#b8615a" opacity=".18"/><clipPath id="e88"><path d="M80 95Q88 89 96 95Q88 99.8 80 95Z"/></clipPath><path d="M80 95Q88 89 96 95Q88 99.8 80 95Z" fill="#f5f1ea"/><g clip-path="url(#e88)"><circle cx="88" cy="95.5" r="3.4" fill="#38e1d8"/><circle cx="88" cy="95.5" r="1.53" fill="#0b0b12"/><circle cx="89.36" cy="94.2" r="1.088" fill="#fff"/></g><path d="M79.5 95Q88 89 96.5 95" fill="none" stroke="#1a1012" stroke-width="1.8" stroke-linecap="round"/><clipPath id="e112"><path d="M104 95Q112 89 120 95Q112 99.8 104 95Z"/></clipPath><path d="M104 95Q112 89 120 95Q112 99.8 104 95Z" fill="#f5f1ea"/><g clip-path="url(#e112)"><circle cx="112" cy="95.5" r="3.4" fill="#38e1d8"/><circle cx="112" cy="95.5" r="1.53" fill="#0b0b12"/><circle cx="113.36" cy="94.2" r="1.088" fill="#fff"/></g><path d="M103.5 95Q112 89 120.5 95" fill="none" stroke="#1a1012" stroke-width="1.8" stroke-linecap="round"/><path d="M80 85H95M105 85H120" stroke="#16837c" stroke-width="2.4" stroke-linecap="round"/><path d="M100 99Q98 106 96 108Q99 110 102 108" fill="none" stroke="#cf9a78" stroke-width="1.6" stroke-linecap="round"/><path d="M93 115H107" stroke="#b8615a" stroke-width="2.4" stroke-linecap="round"/><g fill="#38e1d8"><circle cx="80" cy="104" r="1.6"/><circle cx="84" cy="106" r="1.2"/><circle cx="120" cy="104" r="1.6"/><circle cx="116" cy="106" r="1.2"/></g><g clip-path="url(#face)"><g fill="#000" opacity=".22" transform="translate(0 3)"><path d="M68 86C68 60 84 50 100 50C116 50 132 60 132 86L128 78L72 78Z"/></g></g><g fill="url(#hair)"><path d="M68 86C68 60 84 50 100 50C116 50 132 60 132 86L128 78L72 78Z"/></g><rect x="70" y="80" width="60" height="9" rx="4.5" fill="#38e1d8" opacity=".3"/><rect x="70" y="80" width="60" height="9" rx="4.5" fill="none" stroke="#7ffff5" stroke-width="1.6"/><path d="M76 84.5H124" stroke="#7ffff5" stroke-width="1" stroke-dasharray="3 2"/><path d="M130 82L142 60" stroke="#9ff7f1" stroke-width="1.6"/><circle cx="142" cy="58" r="3" fill="#7ffff5"/><g transform="translate(150 168)"><rect x="-16" y="-12" width="32" height="26" rx="2" fill="#3a2716" stroke="#9ff7f1" stroke-width="1.4"/><path d="M0 -12V14" stroke="#9ff7f1"/><path d="M-12 -6H-4M-12 -1H-4M-12 4H-4M4 -6H12M4 -1H12" stroke="#f3e7cf" stroke-opacity=".6"/><path d="M8 10L26 -26Q30 -20 20 -6Z" fill="#f4f1ea"/><path d="M8 10L22 -16" stroke="#38e1d8" stroke-width="1"/></g><rect width="200" height="200" fill="url(#vig)"/><circle cx="100" cy="100" r="97" fill="none" stroke="#9ff7f1" stroke-opacity=".35" stroke-width="1.5"/></g></svg>