<svg xmlns="http://www.w3.org/2000/svg" viewBox="0 0 200 200" role="img" aria-label="Aries INFP portrait"><metadata>{"id":"aries-infp","features":{"motif":"flames","palette":"aries","headpiece":"ram-horns","head":"round","hair":"bob","eyes":"dreamy","mouth":"soft","garment":"sweater and scarf","held":"paper lantern","skin":"tan","detail":"beauty mark"}}</metadata><defs><radialGradient id="bg" cx="50%" cy="38%" r="75%"><stop offset="0" stop-color="#3a0f12"/><stop offset="1" stop-color="#12060a"/></radialGradient><radialGradient id="aura" cx="50%" cy="50%" r="50%"><stop offset="0" stop-color="#ff8a4c" stop-opacity=".45"/><stop offset="1" stop-color="#ff8a4c" stop-opacity="0"/></radialGradient><radialGradient id="skin" cx="42%" cy="35%" r="70%"><stop offset="0" stop-color="#b97d56"/><stop offset="1" stop-color="#955c3c"/></radialGradient><linearGradient id="rim" x1="0" y1="0" x2="1" y2="0"><stop offset="0" stop-color="#ff8a4c" stop-opacity=".0"/><stop offset=".85" stop-color="#ff8a4c" stop-opacity="0"/><stop offset="1" stop-color="#ff8a4c" stop-opacity=".35"/></linearGradient><linearGradient id="hair" x1="0" y1="0" x2="0" y2="1"><stop offset="0" stop-color="#e78365"/><stop offset="1" stop-color="#a1452a"/></linearGradient><clipPath id="face"><path d="M68 92C68 68 83 56 100 56C117 56 132 68 132 92C132 114 118 127 100 127C82 127 68 114 68 92Z"/></clipPath><radialGradient id="vig" cx="50%" cy="45%" r="70%"><stop offset=".6" stop-color="#000" stop-opacity="0"/><stop offset="1" stop-color="#000" stop-opacity=".55"/></radialGradient></defs><g><rect width="200" height="200" fill="url(#bg)"/><path d="M24 200Q10 150 24 118Q38 150 24 200Z" fill="#ff6a3d" opacity=".22"/><path d="M60 200Q46 146 60 132Q74 146 60 200Z" fill="#ff6a3d" opacity=".22"/><path d="M140 200Q126 142 140 118Q154 142 140 200Z" fill="#ff6a3d" opacity=".22"/><path d="M176 200Q162 138 176 132Q190 138 176 200Z" fill="#ff6a3d" opacity=".22"/><g opacity=".7"><path d="M17.9 34.4L29.6 26.8" stroke="#ff8a4c" stroke-opacity=".5" stroke-width=".8"/><path d="M29.6 26.8L39.7 25.1" stroke="#ff8a4c" stroke-opacity=".5" stroke-width=".8"/><path d="M39.7 25.1L47.3 29.3" stroke="#ff8a4c" stroke-opacity=".5" stroke-width=".8"/><circle cx="17.9" cy="34.4" r="1.4" fill="#fff"/><circle cx="29.6" cy="26.8" r="1.4" fill="#fff"/><circle cx="39.7" cy="25.1" r="1.4" fill="#fff"/><circle cx="47.3" cy="29.3" r="1.4" fill="#fff"/></g><circle cx="100" cy="96" r="78" fill="url(#aura)"/><g fill="#b34d2e"><path d="M61 94C57 58 82 43 100 43C118 43 143 58 139 94C141 110 137 124 129 129C124 119 76 119 71 129C63 124 59 110 61 94Z"/></g><path d="M8 200C14 166 46 146 84 140L100 142L116 140C154 146 186 166 192 200Z" fill="#6f7fa8"/><path d="M76 138Q100 154 124 138L128 150Q100 168 72 150Z" fill="#ff6a3d"/><path d="M110 152L118 196L106 196L102 156Z" fill="#ff6a3d"/><path d="M40 180Q60 170 80 176M120 176Q140 170 160 180" fill="none" stroke="#56658c" stroke-width="2" opacity=".6"/><path d="M8 200C14 166 46 146 84 140L100 142L116 140C154 146 186 166 192 200" fill="none" stroke="#ff8a4c" stroke-opacity=".35" stroke-width="1.5"/><path d="M89 116V142Q100 148 111 142V116Z" fill="#955c3c"/><path d="M89 126Q100 136 111 126V132Q100 140 89 132Z" fill="#000" opacity=".15"/><ellipse cx="69.5" cy="97" rx="5" ry="8" fill="#955c3c"/><ellipse cx="130.5" cy="97" rx="5" ry="8" fill="#955c3c"/><path d="M68 92C68 68 83 56 100 56C117 56 132 68 132 92C132 114 118 127 100 127C82 127 68 114 68 92Z" fill="url(#skin)"/><path d="M68 92C68 68 83 56 100 56C117 56 132 68 132 92C132 114 118 127 100 127C82 127 68 114 68 92Z" fill="url(#rim)"/><ellipse cx="81" cy="107" rx="6" ry="3.4" fill="#7f3c35" opacity=".18"/><ellipse cx="119" cy="107" rx="6" ry="3.4" fill="#7f3c35" opacity=".18"/><path d="M81 95Q88 100 95 95" fill="none" stroke="#1a1012" stroke-width="2" stroke-linecap="round"/><path d="M105 95Q112 100 119 95" fill="none" stroke="#1a1012" stroke-width="2" stroke-linecap="round"/><path d="M80 86Q88 81.5 95 84" fill="none" stroke="#923e26" stroke-width="1.8" stroke-linecap="round"/><path d="M120 86Q112 81.5 105 84" fill="none" stroke="#923e26" stroke-width="1.8" stroke-linecap="round"/><path d="M81 98l-2 2M95 98l1.5 2M105 98l-1.5 2M119 98l2 2" stroke="#1a1012" stroke-width="1.2"/><path d="M100 99Q98 106 96 108Q99 110 102 108" fill="none" stroke="#955c3c" stroke-width="1.6" stroke-linecap="round"/><path d="M95 115Q100 117 105 115" fill="none" stroke="#7f3c35" stroke-width="2.2" stroke-linecap="round"/><circle cx="118" cy="110" r="1.6" fill="#2a1414"/><g clip-path="url(#face)"><g fill="#000" opacity=".22" transform="translate(0 3)"><path d="M68 88C68 62 84 50 100 50C116 50 132 62 132 88C126 80 120 76 114 80C108 72 100 74 96 80C90 72 82 74 78 82C74 80 70 84 68 88Z"/></g></g><g fill="url(#hair)"><path d="M68 88C68 62 84 50 100 50C116 50 132 62 132 88C126 80 120 76 114 80C108 72 100 74 96 80C90 72 82 74 78 82C74 80 70 84 68 88Z"/></g><g fill="none" stroke-linecap="round"><path d="M74 66C58 50 40 58 44 74C47 86 62 84 62 74C62 68 55 68 55 72" stroke="#e8b45a" stroke-width="7"/><path d="M126 66C142 50 160 58 156 74C153 86 138 84 138 74C138 68 145 68 145 72" stroke="#e8b45a" stroke-width="7"/><path d="M74 66C58 50 40 58 44 74" stroke="#7a2a12" stroke-width="2" stroke-dasharray="2 4"/><path d="M126 66C142 50 160 58 156 74" stroke="#7a2a12" stroke-width="2" stroke-dasharray="2 4"/></g><g transform="translate(150 162)"><path d="M0 -24V-18" stroke="#3a2a1a" stroke-width="2"/><ellipse cx="0" cy="0" rx="14" ry="18" fill="#ff6a3d" opacity=".9"/><ellipse cx="0" cy="0" rx="14" ry="18" fill="#fff4d6" opacity=".35"/><path d="M-14 0H14M-12 -9H12M-12 9H12" stroke="#000" stroke-opacity=".15"/><rect x="-6" y="-20" width="12" height="4" fill="#3a2a1a"/><rect x="-6" y="16" width="12" height="4" fill="#3a2a1a"/><circle cx="0" cy="0" r="22" fill="#ff6a3d" opacity=".18"/></g><rect width="200" height="200" fill="url(#vig)"/><circle cx="100" cy="100" r="97" fill="none" stroke="#e8b45a" stroke-opacity=".35" stroke-width="1.5"/></g></svg>