<svg xmlns="http://www.w3.org/2000/svg" viewBox="0 0 200 200" role="img" aria-label="Aries ENTP portrait"><metadata>{"id":"aries-entp","features":{"motif":"flames","palette":"aries","headpiece":"ram-horns","head":"heart","hair":"fringe","eyes":"sly","mouth":"smirk","garment":"trench and loose tie","held":"half mask","skin":"deep","detail":"earrings"}}</metadata><defs><radialGradient id="bg" cx="50%" cy="38%" r="75%"><stop offset="0" stop-color="#3a0f12"/><stop offset="1" stop-color="#12060a"/></radialGradient><radialGradient id="aura" cx="50%" cy="50%" r="50%"><stop offset="0" stop-color="#ff8a4c" stop-opacity=".45"/><stop offset="1" stop-color="#ff8a4c" stop-opacity="0"/></radialGradient><radialGradient id="skin" cx="42%" cy="35%" r="70%"><stop offset="0" stop-color="#5e3a26"/><stop offset="1" stop-color="#45281a"/></radialGradient><linearGradient id="rim" x1="0" y1="0" x2="1" y2="0"><stop offset="0" stop-color="#ff8a4c" stop-opacity=".0"/><stop offset=".85" stop-color="#ff8a4c" stop-opacity="0"/><stop offset="1" stop-color="#ff8a4c" stop-opacity=".35"/></linearGradient><linearGradient id="hair" x1="0" y1="0" x2="0" y2="1"><stop offset="0" stop-color="#e78365"/><stop offset="1" stop-color="#a1452a"/></linearGradient><clipPath id="face"><path d="M70 86C70 64 84 55 100 55C116 55 130 64 130 86C130 104 118 120 100 130C82 120 70 104 70 86Z"/></clipPath><radialGradient id="vig" cx="50%" cy="45%" r="70%"><stop offset=".6" stop-color="#000" stop-opacity="0"/><stop offset="1" stop-color="#000" stop-opacity=".55"/></radialGradient></defs><g><rect width="200" height="200" fill="url(#bg)"/><path d="M24 200Q10 150 24 118Q38 150 24 200Z" fill="#ff6a3d" opacity=".22"/><path d="M60 200Q46 146 60 132Q74 146 60 200Z" fill="#ff6a3d" opacity=".22"/><path d="M140 200Q126 142 140 118Q154 142 140 200Z" fill="#ff6a3d" opacity=".22"/><path d="M176 200Q162 138 176 132Q190 138 176 200Z" fill="#ff6a3d" opacity=".22"/><g opacity=".7"><path d="M17.9 34.4L29.6 26.8" stroke="#ff8a4c" stroke-opacity=".5" stroke-width=".8"/><path d="M29.6 26.8L39.7 25.1" stroke="#ff8a4c" stroke-opacity=".5" stroke-width=".8"/><path d="M39.7 25.1L47.3 29.3" stroke="#ff8a4c" stroke-opacity=".5" stroke-width=".8"/><circle cx="17.9" cy="34.4" r="1.4" fill="#fff"/><circle cx="29.6" cy="26.8" r="1.4" fill="#fff"/><circle cx="39.7" cy="25.1" r="1.4" fill="#fff"/><circle cx="47.3" cy="29.3" r="1.4" fill="#fff"/></g><circle cx="100" cy="96" r="78" fill="url(#aura)"/><g fill="#b34d2e"><path d="M64 98C62 58 84 44 100 44C118 44 138 58 136 98L132 106L68 106Z"/></g><path d="M8 200C14 166 46 146 84 140L100 142L116 140C154 146 186 166 192 200Z" fill="#6b4f32"/><path d="M86 140L100 158L114 140L118 148L104 200H96L82 148Z" fill="#e8e2d6"/><path d="M98 152L94 182L101 190L106 181L102 152Z" fill="#ff6a3d" transform="rotate(8 100 160)"/><path d="M84 140L70 168L88 166L96 200M116 140L130 168L112 166L104 200" fill="#4e3922"/><path d="M8 200C14 166 46 146 84 140L100 142L116 140C154 146 186 166 192 200" fill="none" stroke="#ff8a4c" stroke-opacity=".35" stroke-width="1.5"/><path d="M89 116V142Q100 148 111 142V116Z" fill="#45281a"/><path d="M89 126Q100 136 111 126V132Q100 140 89 132Z" fill="#000" opacity=".15"/><ellipse cx="69.5" cy="97" rx="5" ry="8" fill="#45281a"/><ellipse cx="130.5" cy="97" rx="5" ry="8" fill="#45281a"/><path d="M70 86C70 64 84 55 100 55C116 55 130 64 130 86C130 104 118 120 100 130C82 120 70 104 70 86Z" fill="url(#skin)"/><path d="M70 86C70 64 84 55 100 55C116 55 130 64 130 86C130 104 118 120 100 130C82 120 70 104 70 86Z" fill="url(#rim)"/><ellipse cx="81" cy="107" rx="6" ry="3.4" fill="#3f1d18" opacity=".18"/><ellipse cx="119" cy="107" rx="6" ry="3.4" fill="#3f1d18" opacity=".18"/><clipPath id="e88"><path d="M80 95Q88 89.5 96 95Q88 99.4 80 95Z"/></clipPath><path d="M80 95Q88 89.5 96 95Q88 99.4 80 95Z" fill="#f5f1ea"/><g clip-path="url(#e88)"><circle cx="88" cy="95.5" r="3.4" fill="#ff6a3d"/><circle cx="88" cy="95.5" r="1.53" fill="#0b0b12"/><circle cx="89.36" cy="94.2" r="1.088" fill="#fff"/><rect x="80" y="89.28" width="16" height="2.5740000000000003" fill="#5e3a26"/></g><path d="M79.5 95Q88 91.8166 96.5 95" fill="none" stroke="#1a1012" stroke-width="1.8" stroke-linecap="round"/><clipPath id="e112"><path d="M104 95Q112 89.5 120 95Q112 99.4 104 95Z"/></clipPath><path d="M104 95Q112 89.5 120 95Q112 99.4 104 95Z" fill="#f5f1ea"/><g clip-path="url(#e112)"><circle cx="112" cy="95.5" r="3.4" fill="#ff6a3d"/><circle cx="112" cy="95.5" r="1.53" fill="#0b0b12"/><circle cx="113.36" cy="94.2" r="1.088" fill="#fff"/><rect x="104" y="89.28" width="16" height="1.7160000000000002" fill="#5e3a26"/></g><path d="M103.5 95Q112 91.0444 120.5 95" fill="none" stroke="#1a1012" stroke-width="1.8" stroke-linecap="round"/><path d="M80 85Q88 82.5 95 85" fill="none" stroke="#923e26" stroke-width="2.2" stroke-linecap="round"/><path d="M120 79Q112 76.5 105 82" fill="none" stroke="#923e26" stroke-width="2.2" stroke-linecap="round"/><path d="M100 99Q98 106 96 108Q99 110 102 108" fill="none" stroke="#45281a" stroke-width="1.6" stroke-linecap="round"/><path d="M92 115Q101 117 109 112" fill="none" stroke="#3f1d18" stroke-width="2.4" stroke-linecap="round"/><g fill="#e8b45a"><circle cx="69" cy="110" r="2.6"/><path d="M69 112l-3 7h6z"/><circle cx="131" cy="110" r="2.6"/><path d="M131 112l-3 7h6z"/></g><g clip-path="url(#face)"><g fill="#000" opacity=".22" transform="translate(0 3)"><path d="M65 94C63 62 84 46 105 46C125 46 137 60 134 84C126 74 117 70 108 72C101 81 88 92 73 101Z"/></g></g><g fill="url(#hair)"><path d="M65 94C63 62 84 46 105 46C125 46 137 60 134 84C126 74 117 70 108 72C101 81 88 92 73 101Z"/></g><g fill="none" stroke-linecap="round"><path d="M74 66C58 50 40 58 44 74C47 86 62 84 62 74C62 68 55 68 55 72" stroke="#e8b45a" stroke-width="7"/><path d="M126 66C142 50 160 58 156 74C153 86 138 84 138 74C138 68 145 68 145 72" stroke="#e8b45a" stroke-width="7"/><path d="M74 66C58 50 40 58 44 74" stroke="#7a2a12" stroke-width="2" stroke-dasharray="2 4"/><path d="M126 66C142 50 160 58 156 74" stroke="#7a2a12" stroke-width="2" stroke-dasharray="2 4"/></g><g transform="translate(150 168)"><path d="M-18 -6Q-10 -14 0 -8Q10 -14 18 -6Q16 8 4 8L0 4L-4 8Q-16 8 -18 -6Z" fill="#f2efe8" stroke="#e8b45a" stroke-width="1.5"/><path d="M0 -8Q10 -14 18 -6Q16 8 4 8L0 4Z" fill="#ff6a3d"/><ellipse cx="-8" cy="-3" rx="4" ry="2.4" fill="#111"/><ellipse cx="8" cy="-3" rx="4" ry="2.4" fill="#111"/><path d="M-18 -6L-26 14" stroke="#e8b45a" stroke-width="2"/></g><rect width="200" height="200" fill="url(#vig)"/><circle cx="100" cy="100" r="97" fill="none" stroke="#e8b45a" stroke-opacity=".35" stroke-width="1.5"/></g></svg>