<svg xmlns="http://www.w3.org/2000/svg" viewBox="0 0 200 200" role="img" aria-label="Capricorn INFJ portrait"><metadata>{"id":"capricorn-infj","features":{"motif":"mountain-ridge","palette":"capricorn","headpiece":"goat-horns","head":"oval","hair":"long","eyes":"serene","mouth":"soft","garment":"hooded robe","held":"tarot card","skin":"golden","detail":"earrings"}}</metadata><defs><radialGradient id="bg" cx="50%" cy="38%" r="75%"><stop offset="0" stop-color="#1f1c18"/><stop offset="1" stop-color="#0a0907"/></radialGradient><radialGradient id="aura" cx="50%" cy="50%" r="50%"><stop offset="0" stop-color="#e2cf9e" stop-opacity=".45"/><stop offset="1" stop-color="#e2cf9e" stop-opacity="0"/></radialGradient><radialGradient id="skin" cx="42%" cy="35%" r="70%"><stop offset="0" stop-color="#d9a27a"/><stop offset="1" stop-color="#b47d58"/></radialGradient><linearGradient id="rim" x1="0" y1="0" x2="1" y2="0"><stop offset="0" stop-color="#e2cf9e" stop-opacity=".0"/><stop offset=".85" stop-color="#e2cf9e" stop-opacity="0"/><stop offset="1" stop-color="#e2cf9e" stop-opacity=".35"/></linearGradient><linearGradient id="hair" x1="0" y1="0" x2="0" y2="1"><stop offset="0" stop-color="#565350"/><stop offset="1" stop-color="#1b1816"/></linearGradient><clipPath id="face"><path d="M70 90C70 66 84 55 100 55C116 55 130 66 130 90C130 112 116 129 100 129C84 129 70 112 70 90Z"/></clipPath><radialGradient id="vig" cx="50%" cy="45%" r="70%"><stop offset=".6" stop-color="#000" stop-opacity="0"/><stop offset="1" stop-color="#000" stop-opacity=".55"/></radialGradient></defs><g><rect width="200" height="200" fill="url(#bg)"/><path d="M0 150L30 110L50 128L80 84L110 120L130 100L160 130L200 96V200H0Z" fill="#000" opacity=".35"/><path d="M80 84L72 96L88 96ZM130 100L124 108L136 108Z" fill="#fff" opacity=".2"/><circle cx="160" cy="40" r="10" fill="none" stroke="#b39a6a" stroke-opacity=".3"/><path d="M160 34V40L164 43" stroke="#b39a6a" stroke-opacity=".4"/><g opacity=".7"><path d="M17.0 20.1L24.6 26.8" stroke="#e2cf9e" stroke-opacity=".5" stroke-width=".8"/><path d="M24.6 26.8L33.8 41.9" stroke="#e2cf9e" stroke-opacity=".5" stroke-width=".8"/><path d="M33.8 41.9L41.4 39.4" stroke="#e2cf9e" stroke-opacity=".5" stroke-width=".8"/><path d="M41.4 39.4L49.0 25.1" stroke="#e2cf9e" stroke-opacity=".5" stroke-width=".8"/><path d="M49.0 25.1L37.2 24.3" stroke="#e2cf9e" stroke-opacity=".5" stroke-width=".8"/><path d="M37.2 24.3L24.6 26.8" stroke="#e2cf9e" stroke-opacity=".5" stroke-width=".8"/><circle cx="17.0" cy="20.1" r="1.4" fill="#fff"/><circle cx="24.6" cy="26.8" r="1.4" fill="#fff"/><circle cx="33.8" cy="41.9" r="1.4" fill="#fff"/><circle cx="41.4" cy="39.4" r="1.4" fill="#fff"/><circle cx="49.0" cy="25.1" r="1.4" fill="#fff"/><circle cx="37.2" cy="24.3" r="1.4" fill="#fff"/></g><circle cx="100" cy="96" r="78" fill="url(#aura)"/><g fill="#1e1b18"><path d="M61 92C59 56 82 41 100 41C118 41 141 56 139 92L146 172L54 172Z"/></g><path d="M56 150C46 96 66 46 100 44C134 46 154 96 144 150Z" fill="#352a66"/><path d="M62 146C54 100 72 54 100 52C128 54 146 100 138 146" fill="none" stroke="#b39a6a" stroke-opacity=".5" stroke-width="1.5"/><path d="M8 200C14 166 46 146 84 140L100 142L116 140C154 146 186 166 192 200Z" fill="#241b4a"/><path d="M80 140L100 176L120 140" fill="none" stroke="#b39a6a" stroke-width="3"/><path d="M84 141L100 170L116 141" fill="#352a66"/><circle cx="100" cy="184" r="4" fill="#b39a6a"/><path d="M8 200C14 166 46 146 84 140L100 142L116 140C154 146 186 166 192 200" fill="none" stroke="#e2cf9e" stroke-opacity=".35" stroke-width="1.5"/><path d="M89 116V142Q100 148 111 142V116Z" fill="#b47d58"/><path d="M89 126Q100 136 111 126V132Q100 140 89 132Z" fill="#000" opacity=".15"/><ellipse cx="69.5" cy="97" rx="5" ry="8" fill="#b47d58"/><ellipse cx="130.5" cy="97" rx="5" ry="8" fill="#b47d58"/><path d="M70 90C70 66 84 55 100 55C116 55 130 66 130 90C130 112 116 129 100 129C84 129 70 112 70 90Z" fill="url(#skin)"/><path d="M70 90C70 66 84 55 100 55C116 55 130 66 130 90C130 112 116 129 100 129C84 129 70 112 70 90Z" fill="url(#rim)"/><ellipse cx="81" cy="107" rx="6" ry="3.4" fill="#a24f48" opacity=".18"/><ellipse cx="119" cy="107" rx="6" ry="3.4" fill="#a24f48" opacity=".18"/><clipPath id="e88"><path d="M80 95Q88 89.25 96 95Q88 99.6 80 95Z"/></clipPath><path d="M80 95Q88 89.25 96 95Q88 99.6 80 95Z" fill="#f5f1ea"/><g clip-path="url(#e88)"><circle cx="88" cy="95.5" r="3.6" fill="#b39a6a"/><circle cx="88" cy="95.5" r="1.62" fill="#0b0b12"/><circle cx="89.44" cy="94.2" r="1.1520000000000001" fill="#fff"/><rect x="80" y="89.02" width="16" height="3.289" fill="#d9a27a"/></g><path d="M79.5 95Q88 92.2101 96.5 95" fill="none" stroke="#1a1012" stroke-width="1.8" stroke-linecap="round"/><clipPath id="e112"><path d="M104 95Q112 89.25 120 95Q112 99.6 104 95Z"/></clipPath><path d="M104 95Q112 89.25 120 95Q112 99.6 104 95Z" fill="#f5f1ea"/><g clip-path="url(#e112)"><circle cx="112" cy="95.5" r="3.6" fill="#b39a6a"/><circle cx="112" cy="95.5" r="1.62" fill="#0b0b12"/><circle cx="113.44" cy="94.2" r="1.1520000000000001" fill="#fff"/><rect x="104" y="89.02" width="16" height="3.289" fill="#d9a27a"/></g><path d="M103.5 95Q112 92.2101 120.5 95" fill="none" stroke="#1a1012" stroke-width="1.8" stroke-linecap="round"/><path d="M80 85Q88 81.5 95 84" fill="none" stroke="#191614" stroke-width="1.8" stroke-linecap="round"/><path d="M120 85Q112 81.5 105 84" fill="none" stroke="#191614" stroke-width="1.8" stroke-linecap="round"/><path d="M100 99Q98 106 96 108Q99 110 102 108" fill="none" stroke="#b47d58" stroke-width="1.6" stroke-linecap="round"/><path d="M95 115Q100 117 105 115" fill="none" stroke="#a24f48" stroke-width="2.2" stroke-linecap="round"/><g fill="#c9a55a"><circle cx="69" cy="110" r="2.6"/><path d="M69 112l-3 7h6z"/><circle cx="131" cy="110" r="2.6"/><path d="M131 112l-3 7h6z"/></g><g clip-path="url(#face)"><g fill="#000" opacity=".22" transform="translate(0 3)"><path d="M68 98C66 62 84 50 100 52C116 50 134 62 132 98C128 77 116 63 100 61C84 63 72 77 68 98Z"/></g></g><g fill="url(#hair)"><path d="M68 98C66 62 84 50 100 52C116 50 134 62 132 98C128 77 116 63 100 61C84 63 72 77 68 98Z"/></g><g fill="#c9a55a" stroke="#2a1f10" stroke-width="1"><path d="M80 62C74 44 62 34 52 36C64 42 70 54 72 68Z"/><path d="M120 62C126 44 138 34 148 36C136 42 130 54 128 68Z"/></g><path d="M58 40l4 3M64 44l3 3M142 40l-4 3M136 44l-3 3" stroke="#2a1f10" stroke-width="1.2"/><g transform="translate(150 166) rotate(10)"><rect x="-13" y="-20" width="26" height="40" rx="2.5" fill="#141a3a" stroke="#c9a55a" stroke-width="1.6"/><rect x="-9.5" y="-16.5" width="19" height="33" rx="1.5" fill="none" stroke="#c9a55a" stroke-opacity=".5"/><circle cx="0" cy="-2" r="6" fill="none" stroke="#b39a6a" stroke-width="1.5"/><path d="M0 -12V8M-6 12H6" stroke="#b39a6a" stroke-width="1.2"/><circle cx="0" cy="-2" r="2" fill="#b39a6a"/></g><rect width="200" height="200" fill="url(#vig)"/><circle cx="100" cy="100" r="97" fill="none" stroke="#c9a55a" stroke-opacity=".35" stroke-width="1.5"/></g></svg>