<svg xmlns="http://www.w3.org/2000/svg" viewBox="0 0 200 200" role="img" aria-label="Gemini ENFJ portrait"><metadata>{"id":"gemini-enfj","features":{"motif":"mirror-split","palette":"gemini","headpiece":"twin-star-pins","head":"oval","hair":"wave","eyes":"warm","mouth":"smile","garment":"ceremonial vestment","held":"ceremonial candle","skin":"porcelain","detail":"beauty mark"}}</metadata><defs><radialGradient id="bg" cx="50%" cy="38%" r="75%"><stop offset="0" stop-color="#1d1640"/><stop offset="1" stop-color="#0a0818"/></radialGradient><radialGradient id="aura" cx="50%" cy="50%" r="50%"><stop offset="0" stop-color="#7fe3ff" stop-opacity=".45"/><stop offset="1" stop-color="#7fe3ff" stop-opacity="0"/></radialGradient><radialGradient id="skin" cx="42%" cy="35%" r="70%"><stop offset="0" stop-color="#f4d7c2"/><stop offset="1" stop-color="#d9ad94"/></radialGradient><linearGradient id="rim" x1="0" y1="0" x2="1" y2="0"><stop offset="0" stop-color="#7fe3ff" stop-opacity=".0"/><stop offset=".85" stop-color="#7fe3ff" stop-opacity="0"/><stop offset="1" stop-color="#7fe3ff" stop-opacity=".35"/></linearGradient><linearGradient id="hair" x1="0" y1="0" x2="0" y2="1"><stop offset="0" stop-color="#a699f3"/><stop offset="1" stop-color="#6659ad"/></linearGradient><clipPath id="face"><path d="M70 90C70 66 84 55 100 55C116 55 130 66 130 90C130 112 116 129 100 129C84 129 70 112 70 90Z"/></clipPath><radialGradient id="vig" cx="50%" cy="45%" r="70%"><stop offset=".6" stop-color="#000" stop-opacity="0"/><stop offset="1" stop-color="#000" stop-opacity=".55"/></radialGradient></defs><g><rect width="200" height="200" fill="url(#bg)"/><rect x="100" y="0" width="100" height="200" fill="#fff" opacity=".04"/><path d="M100 0V200" stroke="#7fe3ff" stroke-opacity=".35"/><path d="M10 20H40M160 20H190" stroke="#9c86ff" stroke-opacity=".3"/><path d="M24 32H54M146 32H176" stroke="#9c86ff" stroke-opacity=".3"/><path d="M38 44H68M132 44H162" stroke="#9c86ff" stroke-opacity=".3"/><path d="M52 56H82M118 56H148" stroke="#9c86ff" stroke-opacity=".3"/><path d="M66 68H96M104 68H134" stroke="#9c86ff" stroke-opacity=".3"/><path d="M80 80H110M90 80H120" stroke="#9c86ff" stroke-opacity=".3"/><g opacity=".7"><path d="M24.6 15.0L22.9 26.8" stroke="#7fe3ff" stroke-opacity=".5" stroke-width=".8"/><path d="M22.9 26.8L21.2 39.4" stroke="#7fe3ff" stroke-opacity=".5" stroke-width=".8"/><path d="M21.2 39.4L19.6 47.8" stroke="#7fe3ff" stroke-opacity=".5" stroke-width=".8"/><path d="M38.0 15.9L38.9 27.6" stroke="#7fe3ff" stroke-opacity=".5" stroke-width=".8"/><path d="M38.9 27.6L41.4 39.4" stroke="#7fe3ff" stroke-opacity=".5" stroke-width=".8"/><path d="M41.4 39.4L43.9 47.8" stroke="#7fe3ff" stroke-opacity=".5" stroke-width=".8"/><path d="M22.9 26.8L38.9 27.6" stroke="#7fe3ff" stroke-opacity=".5" stroke-width=".8"/><circle cx="24.6" cy="15.0" r="1.4" fill="#fff"/><circle cx="22.9" cy="26.8" r="1.4" fill="#fff"/><circle cx="21.2" cy="39.4" r="1.4" fill="#fff"/><circle cx="19.6" cy="47.8" r="1.4" fill="#fff"/><circle cx="38.0" cy="15.9" r="1.4" fill="#fff"/><circle cx="38.9" cy="27.6" r="1.4" fill="#fff"/><circle cx="41.4" cy="39.4" r="1.4" fill="#fff"/><circle cx="43.9" cy="47.8" r="1.4" fill="#fff"/></g><circle cx="100" cy="96" r="78" fill="url(#aura)"/><g fill="#7163c0"><path d="M64 100C62 60 84 45 101 45C120 45 139 60 136 100L131 108L69 108Z"/></g><path d="M8 200C14 166 46 146 84 140L100 142L116 140C154 146 186 166 192 200Z" fill="#4a1f3a"/><path d="M86 141L100 154L114 141L112 200H88Z" fill="#e9dfd0"/><path d="M60 152L80 200M140 152L120 200" stroke="#9c86ff" stroke-width="6"/><circle cx="100" cy="170" r="8" fill="none" stroke="#9c86ff" stroke-width="2.5"/><circle cx="100" cy="170" r="3" fill="#9c86ff"/><path d="M8 200C14 166 46 146 84 140L100 142L116 140C154 146 186 166 192 200" fill="none" stroke="#7fe3ff" stroke-opacity=".35" stroke-width="1.5"/><path d="M89 116V142Q100 148 111 142V116Z" fill="#d9ad94"/><path d="M89 126Q100 136 111 126V132Q100 140 89 132Z" fill="#000" opacity=".15"/><ellipse cx="69.5" cy="97" rx="5" ry="8" fill="#d9ad94"/><ellipse cx="130.5" cy="97" rx="5" ry="8" fill="#d9ad94"/><path d="M70 90C70 66 84 55 100 55C116 55 130 66 130 90C130 112 116 129 100 129C84 129 70 112 70 90Z" fill="url(#skin)"/><path d="M70 90C70 66 84 55 100 55C116 55 130 66 130 90C130 112 116 129 100 129C84 129 70 112 70 90Z" fill="url(#rim)"/><ellipse cx="81" cy="107" rx="6" ry="3.4" fill="#c9726f" opacity=".18"/><ellipse cx="119" cy="107" rx="6" ry="3.4" fill="#c9726f" opacity=".18"/><clipPath id="e88"><path d="M80 95Q88 88.75 96 95Q88 100 80 95Z"/></clipPath><path d="M80 95Q88 88.75 96 95Q88 100 80 95Z" fill="#f5f1ea"/><g clip-path="url(#e88)"><circle cx="88" cy="95.5" r="3.4" fill="#9c86ff"/><circle cx="88" cy="95.5" r="1.53" fill="#0b0b12"/><circle cx="89.36" cy="94.2" r="1.088" fill="#fff"/></g><path d="M79.5 95Q88 88.75 96.5 95" fill="none" stroke="#1a1012" stroke-width="1.8" stroke-linecap="round"/><clipPath id="e112"><path d="M104 95Q112 88.75 120 95Q112 100 104 95Z"/></clipPath><path d="M104 95Q112 88.75 120 95Q112 100 104 95Z" fill="#f5f1ea"/><g clip-path="url(#e112)"><circle cx="112" cy="95.5" r="3.4" fill="#9c86ff"/><circle cx="112" cy="95.5" r="1.53" fill="#0b0b12"/><circle cx="113.36" cy="94.2" r="1.088" fill="#fff"/></g><path d="M103.5 95Q112 88.75 120.5 95" fill="none" stroke="#1a1012" stroke-width="1.8" stroke-linecap="round"/><path d="M80 85Q88 81.5 95 84" fill="none" stroke="#5c519c" stroke-width="2.2" stroke-linecap="round"/><path d="M120 85Q112 81.5 105 84" fill="none" stroke="#5c519c" stroke-width="2.2" stroke-linecap="round"/><path d="M100 99Q98 106 96 108Q99 110 102 108" fill="none" stroke="#d9ad94" stroke-width="1.6" stroke-linecap="round"/><path d="M91 113Q100 120 109 113" fill="none" stroke="#c9726f" stroke-width="2.4" stroke-linecap="round"/><circle cx="118" cy="110" r="1.6" fill="#2a1414"/><g clip-path="url(#face)"><g fill="#000" opacity=".22" transform="translate(0 3)"><path d="M67 87C65 60 86 45 107 47C127 49 137 66 133 85C125 66 108 62 96 70C86 66 74 74 67 87Z"/><path d="M84 58C96 50 114 50 126 60" fill="none" stroke="#fff" stroke-opacity=".18" stroke-width="2"/></g></g><g fill="url(#hair)"><path d="M67 87C65 60 86 45 107 47C127 49 137 66 133 85C125 66 108 62 96 70C86 66 74 74 67 87Z"/><path d="M84 58C96 50 114 50 126 60" fill="none" stroke="#fff" stroke-opacity=".18" stroke-width="2"/></g><g fill="#7fe3ff"><path d="M72 64l2.2 4.5 5 .7-3.6 3.5.9 5-4.5-2.4-4.5 2.4.9-5-3.6-3.5 5-.7z"/><path d="M128 64l2.2 4.5 5 .7-3.6 3.5.9 5-4.5-2.4-4.5 2.4.9-5-3.6-3.5 5-.7z"/></g><path d="M100 46l6 8-6 8-6-8z" fill="#9c86ff"/><path d="M100 46v16" stroke="#fff" stroke-opacity=".7"/><g transform="translate(150 160)"><rect x="-6" y="0" width="12" height="30" rx="2" fill="#f1e9da"/><path d="M-12 30H12L9 36H-9Z" fill="#cfd6ff"/><path d="M0 -14Q6 -6 0 0Q-6 -6 0 -14Z" fill="#ffd36b"/><path d="M0 -9Q3 -5 0 -2Q-3 -5 0 -9Z" fill="#fff"/><circle cx="0" cy="-6" r="12" fill="#9c86ff" opacity=".18"/></g><rect width="200" height="200" fill="url(#vig)"/><circle cx="100" cy="100" r="97" fill="none" stroke="#cfd6ff" stroke-opacity=".35" stroke-width="1.5"/></g></svg>