<svg xmlns="http://www.w3.org/2000/svg" viewBox="0 0 200 200" role="img" aria-label="Leo ISFJ portrait"><metadata>{"id":"leo-isfj","features":{"motif":"sun-rays","palette":"leo","headpiece":"sun-crown","head":"round","hair":"bun","eyes":"kind","mouth":"smile","garment":"shawl and brooch","held":"wrapped charm","skin":"brown","detail":"beauty mark"}}</metadata><defs><radialGradient id="bg" cx="50%" cy="38%" r="75%"><stop offset="0" stop-color="#3a2408"/><stop offset="1" stop-color="#140c03"/></radialGradient><radialGradient id="aura" cx="50%" cy="50%" r="50%"><stop offset="0" stop-color="#ffd76b" stop-opacity=".45"/><stop offset="1" stop-color="#ffd76b" stop-opacity="0"/></radialGradient><radialGradient id="skin" cx="42%" cy="35%" r="70%"><stop offset="0" stop-color="#8c5a3b"/><stop offset="1" stop-color="#6c4129"/></radialGradient><linearGradient id="rim" x1="0" y1="0" x2="1" y2="0"><stop offset="0" stop-color="#ffd76b" stop-opacity=".0"/><stop offset=".85" stop-color="#ffd76b" stop-opacity="0"/><stop offset="1" stop-color="#ffd76b" stop-opacity=".35"/></linearGradient><linearGradient id="hair" x1="0" y1="0" x2="0" y2="1"><stop offset="0" stop-color="#bb7c4f"/><stop offset="1" stop-color="#793f15"/></linearGradient><clipPath id="face"><path d="M68 92C68 68 83 56 100 56C117 56 132 68 132 92C132 114 118 127 100 127C82 127 68 114 68 92Z"/></clipPath><radialGradient id="vig" cx="50%" cy="45%" r="70%"><stop offset=".6" stop-color="#000" stop-opacity="0"/><stop offset="1" stop-color="#000" stop-opacity=".55"/></radialGradient></defs><g><rect width="200" height="200" fill="url(#bg)"/><path d="M100 92L260 92" stroke="#ffbf3f" stroke-opacity="0.16" stroke-width="12"/><path d="M100 92L248 153" stroke="#ffbf3f" stroke-opacity="0.08" stroke-width="6"/><path d="M100 92L213 205" stroke="#ffbf3f" stroke-opacity="0.16" stroke-width="12"/><path d="M100 92L161 240" stroke="#ffbf3f" stroke-opacity="0.08" stroke-width="6"/><path d="M100 92L100 252" stroke="#ffbf3f" stroke-opacity="0.16" stroke-width="12"/><path d="M100 92L39 240" stroke="#ffbf3f" stroke-opacity="0.08" stroke-width="6"/><path d="M100 92L-13 205" stroke="#ffbf3f" stroke-opacity="0.16" stroke-width="12"/><path d="M100 92L-48 153" stroke="#ffbf3f" stroke-opacity="0.08" stroke-width="6"/><path d="M100 92L-60 92" stroke="#ffbf3f" stroke-opacity="0.16" stroke-width="12"/><path d="M100 92L-48 31" stroke="#ffbf3f" stroke-opacity="0.08" stroke-width="6"/><path d="M100 92L-13 -21" stroke="#ffbf3f" stroke-opacity="0.16" stroke-width="12"/><path d="M100 92L39 -56" stroke="#ffbf3f" stroke-opacity="0.08" stroke-width="6"/><path d="M100 92L100 -68" stroke="#ffbf3f" stroke-opacity="0.16" stroke-width="12"/><path d="M100 92L161 -56" stroke="#ffbf3f" stroke-opacity="0.08" stroke-width="6"/><path d="M100 92L213 -21" stroke="#ffbf3f" stroke-opacity="0.16" stroke-width="12"/><path d="M100 92L248 31" stroke="#ffbf3f" stroke-opacity="0.08" stroke-width="6"/><g opacity=".7"><path d="M44.8 19.2L38.9 15.9" stroke="#ffd76b" stroke-opacity=".5" stroke-width=".8"/><path d="M38.9 15.9L33.8 20.1" stroke="#ffd76b" stroke-opacity=".5" stroke-width=".8"/><path d="M33.8 20.1L35.5 27.6" stroke="#ffd76b" stroke-opacity=".5" stroke-width=".8"/><path d="M35.5 27.6L28.8 33.5" stroke="#ffd76b" stroke-opacity=".5" stroke-width=".8"/><path d="M28.8 33.5L18.7 36.9" stroke="#ffd76b" stroke-opacity=".5" stroke-width=".8"/><path d="M18.7 36.9L22.1 45.3" stroke="#ffd76b" stroke-opacity=".5" stroke-width=".8"/><path d="M28.8 33.5L37.2 41.1" stroke="#ffd76b" stroke-opacity=".5" stroke-width=".8"/><path d="M37.2 41.1L35.5 27.6" stroke="#ffd76b" stroke-opacity=".5" stroke-width=".8"/><circle cx="44.8" cy="19.2" r="1.4" fill="#fff"/><circle cx="38.9" cy="15.9" r="1.4" fill="#fff"/><circle cx="33.8" cy="20.1" r="1.4" fill="#fff"/><circle cx="35.5" cy="27.6" r="1.4" fill="#fff"/><circle cx="28.8" cy="33.5" r="1.4" fill="#fff"/><circle cx="18.7" cy="36.9" r="1.4" fill="#fff"/><circle cx="22.1" cy="45.3" r="1.4" fill="#fff"/><circle cx="37.2" cy="41.1" r="1.4" fill="#fff"/></g><circle cx="100" cy="96" r="78" fill="url(#aura)"/><g fill="#864617"><path d="M64 98C62 58 84 44 100 44C118 44 138 58 136 98L132 106L68 106Z"/><circle cx="136" cy="70" r="14"/></g><path d="M8 200C14 166 46 146 84 140L100 142L116 140C154 146 186 166 192 200Z" fill="#5a6f6a"/><path d="M24 178Q60 150 100 160Q140 150 176 178L180 200H20Z" fill="#b9a98a"/><path d="M30 186Q64 164 100 172Q136 164 170 186" fill="none" stroke="#ffbf3f" stroke-opacity=".4" stroke-dasharray="3 4"/><circle cx="100" cy="162" r="6" fill="#ffbf3f"/><circle cx="100" cy="162" r="2.6" fill="#fff" opacity=".7"/><path d="M8 200C14 166 46 146 84 140L100 142L116 140C154 146 186 166 192 200" fill="none" stroke="#ffd76b" stroke-opacity=".35" stroke-width="1.5"/><path d="M89 116V142Q100 148 111 142V116Z" fill="#6c4129"/><path d="M89 126Q100 136 111 126V132Q100 140 89 132Z" fill="#000" opacity=".15"/><ellipse cx="69.5" cy="97" rx="5" ry="8" fill="#6c4129"/><ellipse cx="130.5" cy="97" rx="5" ry="8" fill="#6c4129"/><path d="M68 92C68 68 83 56 100 56C117 56 132 68 132 92C132 114 118 127 100 127C82 127 68 114 68 92Z" fill="url(#skin)"/><path d="M68 92C68 68 83 56 100 56C117 56 132 68 132 92C132 114 118 127 100 127C82 127 68 114 68 92Z" fill="url(#rim)"/><ellipse cx="81" cy="107" rx="6" ry="3.4" fill="#5e2c26" opacity=".18"/><ellipse cx="119" cy="107" rx="6" ry="3.4" fill="#5e2c26" opacity=".18"/><clipPath id="e88"><path d="M80 95Q88 88 96 95Q88 100.6 80 95Z"/></clipPath><path d="M80 95Q88 88 96 95Q88 100.6 80 95Z" fill="#f5f1ea"/><g clip-path="url(#e88)"><circle cx="88" cy="95.5" r="3.8" fill="#ffbf3f"/><circle cx="88" cy="95.5" r="1.71" fill="#0b0b12"/><circle cx="89.52" cy="94.2" r="1.216" fill="#fff"/></g><path d="M79.5 95Q88 88 96.5 95" fill="none" stroke="#1a1012" stroke-width="1.8" stroke-linecap="round"/><clipPath id="e112"><path d="M104 95Q112 88 120 95Q112 100.6 104 95Z"/></clipPath><path d="M104 95Q112 88 120 95Q112 100.6 104 95Z" fill="#f5f1ea"/><g clip-path="url(#e112)"><circle cx="112" cy="95.5" r="3.8" fill="#ffbf3f"/><circle cx="112" cy="95.5" r="1.71" fill="#0b0b12"/><circle cx="113.52" cy="94.2" r="1.216" fill="#fff"/></g><path d="M103.5 95Q112 88 120.5 95" fill="none" stroke="#1a1012" stroke-width="1.8" stroke-linecap="round"/><path d="M80 85Q88 79.5 95 82" fill="none" stroke="#6d3913" stroke-width="2" stroke-linecap="round"/><path d="M120 85Q112 79.5 105 82" fill="none" stroke="#6d3913" stroke-width="2" stroke-linecap="round"/><path d="M100 99Q98 106 96 108Q99 110 102 108" fill="none" stroke="#6c4129" stroke-width="1.6" stroke-linecap="round"/><path d="M91 113Q100 120 109 113" fill="none" stroke="#5e2c26" stroke-width="2.4" stroke-linecap="round"/><circle cx="118" cy="110" r="1.6" fill="#2a1414"/><g clip-path="url(#face)"><g fill="#000" opacity=".22" transform="translate(0 3)"><path d="M67 90C66 62 84 49 101 49C119 49 134 62 133 82C122 70 106 68 92 72C82 76 73 82 67 90Z"/></g></g><g fill="url(#hair)"><path d="M67 90C66 62 84 49 101 49C119 49 134 62 133 82C122 70 106 68 92 72C82 76 73 82 67 90Z"/></g><path d="M72 70L76 52L86 62L92 44L100 58L108 44L114 62L124 52L128 70Q100 64 72 70Z" fill="#ffd25a" stroke="#7a4a10" stroke-width="1"/><circle cx="100" cy="64" r="4" fill="#c2401a"/><circle cx="84" cy="66" r="2" fill="#fff4c2"/><circle cx="116" cy="66" r="2" fill="#fff4c2"/><g transform="translate(150 166)"><path d="M0 -26V-14" stroke="#ffd25a" stroke-width="1.4"/><path d="M-11 -14H11L9 14Q0 20 -9 14Z" fill="#ffbf3f"/><path d="M-10 -6H10M-9 4H9" stroke="#fff" stroke-opacity=".5" stroke-width="1.5"/><path d="M-4 14L-6 24M4 14L6 24" stroke="#ffbf3f" stroke-width="2"/><circle cx="0" cy="-1" r="3" fill="#fff" opacity=".8"/></g><rect width="200" height="200" fill="url(#vig)"/><circle cx="100" cy="100" r="97" fill="none" stroke="#ffd25a" stroke-opacity=".35" stroke-width="1.5"/></g></svg>