<svg xmlns="http://www.w3.org/2000/svg" viewBox="0 0 200 200" role="img" aria-label="Libra ENTP portrait"><metadata>{"id":"libra-entp","features":{"motif":"balance-scales","palette":"libra","headpiece":"white-feather","head":"heart","hair":"fringe","eyes":"sly","mouth":"smirk","garment":"trench and loose tie","held":"half mask","skin":"light","detail":"face paint"}}</metadata><defs><radialGradient id="bg" cx="50%" cy="38%" r="75%"><stop offset="0" stop-color="#2a2633"/><stop offset="1" stop-color="#0e0c14"/></radialGradient><radialGradient id="aura" cx="50%" cy="50%" r="50%"><stop offset="0" stop-color="#fff6e3" stop-opacity=".45"/><stop offset="1" stop-color="#fff6e3" stop-opacity="0"/></radialGradient><radialGradient id="skin" cx="42%" cy="35%" r="70%"><stop offset="0" stop-color="#eebf9d"/><stop offset="1" stop-color="#cf9a78"/></radialGradient><linearGradient id="rim" x1="0" y1="0" x2="1" y2="0"><stop offset="0" stop-color="#fff6e3" stop-opacity=".0"/><stop offset=".85" stop-color="#fff6e3" stop-opacity="0"/><stop offset="1" stop-color="#fff6e3" stop-opacity=".35"/></linearGradient><linearGradient id="hair" x1="0" y1="0" x2="0" y2="1"><stop offset="0" stop-color="#8c7665"/><stop offset="1" stop-color="#4d392a"/></linearGradient><clipPath id="face"><path d="M70 86C70 64 84 55 100 55C116 55 130 64 130 86C130 104 118 120 100 130C82 120 70 104 70 86Z"/></clipPath><radialGradient id="vig" cx="50%" cy="45%" r="70%"><stop offset=".6" stop-color="#000" stop-opacity="0"/><stop offset="1" stop-color="#000" stop-opacity=".55"/></radialGradient></defs><g><rect width="200" height="200" fill="url(#bg)"/><g stroke="#efe6d2" stroke-opacity=".22" fill="none" stroke-width="1.5"><path d="M30 40H170M100 22V40"/><path d="M30 40L18 70H42ZM170 40L158 70H182Z"/></g><g opacity=".7"><path d="M33.0 15.9L20.4 28.5" stroke="#fff6e3" stroke-opacity=".5" stroke-width=".8"/><path d="M33.0 15.9L45.6 28.5" stroke="#fff6e3" stroke-opacity=".5" stroke-width=".8"/><path d="M20.4 28.5L45.6 28.5" stroke="#fff6e3" stroke-opacity=".5" stroke-width=".8"/><path d="M20.4 28.5L23.8 43.6" stroke="#fff6e3" stroke-opacity=".5" stroke-width=".8"/><path d="M45.6 28.5L42.2 44.4" stroke="#fff6e3" stroke-opacity=".5" stroke-width=".8"/><circle cx="33.0" cy="15.9" r="1.4" fill="#fff"/><circle cx="20.4" cy="28.5" r="1.4" fill="#fff"/><circle cx="45.6" cy="28.5" r="1.4" fill="#fff"/><circle cx="23.8" cy="43.6" r="1.4" fill="#fff"/><circle cx="42.2" cy="44.4" r="1.4" fill="#fff"/></g><circle cx="100" cy="96" r="78" fill="url(#aura)"/><g fill="#563f2e"><path d="M64 98C62 58 84 44 100 44C118 44 138 58 136 98L132 106L68 106Z"/></g><path d="M8 200C14 166 46 146 84 140L100 142L116 140C154 146 186 166 192 200Z" fill="#6b4f32"/><path d="M86 140L100 158L114 140L118 148L104 200H96L82 148Z" fill="#e8e2d6"/><path d="M98 152L94 182L101 190L106 181L102 152Z" fill="#efe6d2" transform="rotate(8 100 160)"/><path d="M84 140L70 168L88 166L96 200M116 140L130 168L112 166L104 200" fill="#4e3922"/><path d="M8 200C14 166 46 146 84 140L100 142L116 140C154 146 186 166 192 200" fill="none" stroke="#fff6e3" stroke-opacity=".35" stroke-width="1.5"/><path d="M89 116V142Q100 148 111 142V116Z" fill="#cf9a78"/><path d="M89 126Q100 136 111 126V132Q100 140 89 132Z" fill="#000" opacity=".15"/><ellipse cx="69.5" cy="97" rx="5" ry="8" fill="#cf9a78"/><ellipse cx="130.5" cy="97" rx="5" ry="8" fill="#cf9a78"/><path d="M70 86C70 64 84 55 100 55C116 55 130 64 130 86C130 104 118 120 100 130C82 120 70 104 70 86Z" fill="url(#skin)"/><path d="M70 86C70 64 84 55 100 55C116 55 130 64 130 86C130 104 118 120 100 130C82 120 70 104 70 86Z" fill="url(#rim)"/><ellipse cx="81" cy="107" rx="6" ry="3.4" fill="#b8615a" opacity=".18"/><ellipse cx="119" cy="107" rx="6" ry="3.4" fill="#b8615a" opacity=".18"/><clipPath id="e88"><path d="M80 95Q88 89.5 96 95Q88 99.4 80 95Z"/></clipPath><path d="M80 95Q88 89.5 96 95Q88 99.4 80 95Z" fill="#f5f1ea"/><g clip-path="url(#e88)"><circle cx="88" cy="95.5" r="3.4" fill="#efe6d2"/><circle cx="88" cy="95.5" r="1.53" fill="#0b0b12"/><circle cx="89.36" cy="94.2" r="1.088" fill="#fff"/><rect x="80" y="89.28" width="16" height="2.5740000000000003" fill="#eebf9d"/></g><path d="M79.5 95Q88 91.8166 96.5 95" fill="none" stroke="#1a1012" stroke-width="1.8" stroke-linecap="round"/><clipPath id="e112"><path d="M104 95Q112 89.5 120 95Q112 99.4 104 95Z"/></clipPath><path d="M104 95Q112 89.5 120 95Q112 99.4 104 95Z" fill="#f5f1ea"/><g clip-path="url(#e112)"><circle cx="112" cy="95.5" r="3.4" fill="#efe6d2"/><circle cx="112" cy="95.5" r="1.53" fill="#0b0b12"/><circle cx="113.36" cy="94.2" r="1.088" fill="#fff"/><rect x="104" y="89.28" width="16" height="1.7160000000000002" fill="#eebf9d"/></g><path d="M103.5 95Q112 91.0444 120.5 95" fill="none" stroke="#1a1012" stroke-width="1.8" stroke-linecap="round"/><path d="M80 85Q88 82.5 95 85" fill="none" stroke="#463326" stroke-width="2.2" stroke-linecap="round"/><path d="M120 79Q112 76.5 105 82" fill="none" stroke="#463326" stroke-width="2.2" stroke-linecap="round"/><path d="M100 99Q98 106 96 108Q99 110 102 108" fill="none" stroke="#cf9a78" stroke-width="1.6" stroke-linecap="round"/><path d="M92 115Q101 117 109 112" fill="none" stroke="#b8615a" stroke-width="2.4" stroke-linecap="round"/><g fill="#efe6d2"><circle cx="80" cy="104" r="1.6"/><circle cx="84" cy="106" r="1.2"/><circle cx="120" cy="104" r="1.6"/><circle cx="116" cy="106" r="1.2"/></g><g clip-path="url(#face)"><g fill="#000" opacity=".22" transform="translate(0 3)"><path d="M65 94C63 62 84 46 105 46C125 46 137 60 134 84C126 74 117 70 108 72C101 81 88 92 73 101Z"/></g></g><g fill="url(#hair)"><path d="M65 94C63 62 84 46 105 46C125 46 137 60 134 84C126 74 117 70 108 72C101 81 88 92 73 101Z"/></g><path d="M128 74Q150 40 140 26Q126 46 124 72Z" fill="#fbf8f0"/><path d="M126 72Q136 50 140 28" stroke="#c9c0a8" stroke-width="1" fill="none"/><path d="M84 68Q100 76 116 68" fill="none" stroke="#f3e7c9" stroke-width="1.2"/><path d="M100 72V80M94 80H106M94 80l-2 4h4zM106 80l-2 4h4z" stroke="#f3e7c9" stroke-width="1.2" fill="#f3e7c9"/><g transform="translate(150 168)"><path d="M-18 -6Q-10 -14 0 -8Q10 -14 18 -6Q16 8 4 8L0 4L-4 8Q-16 8 -18 -6Z" fill="#f2efe8" stroke="#f3e7c9" stroke-width="1.5"/><path d="M0 -8Q10 -14 18 -6Q16 8 4 8L0 4Z" fill="#efe6d2"/><ellipse cx="-8" cy="-3" rx="4" ry="2.4" fill="#111"/><ellipse cx="8" cy="-3" rx="4" ry="2.4" fill="#111"/><path d="M-18 -6L-26 14" stroke="#f3e7c9" stroke-width="2"/></g><rect width="200" height="200" fill="url(#vig)"/><circle cx="100" cy="100" r="97" fill="none" stroke="#f3e7c9" stroke-opacity=".35" stroke-width="1.5"/></g></svg>