<svg xmlns="http://www.w3.org/2000/svg" viewBox="0 0 200 200" role="img" aria-label="Libra ESFP portrait"><metadata>{"id":"libra-esfp","features":{"motif":"balance-scales","palette":"libra","headpiece":"white-feather","head":"heart","hair":"ponytail","eyes":"wink","mouth":"open","garment":"sequin stage jacket","held":"microphone","skin":"porcelain","detail":"none"}}</metadata><defs><radialGradient id="bg" cx="50%" cy="38%" r="75%"><stop offset="0" stop-color="#2a2633"/><stop offset="1" stop-color="#0e0c14"/></radialGradient><radialGradient id="aura" cx="50%" cy="50%" r="50%"><stop offset="0" stop-color="#fff6e3" stop-opacity=".45"/><stop offset="1" stop-color="#fff6e3" stop-opacity="0"/></radialGradient><radialGradient id="skin" cx="42%" cy="35%" r="70%"><stop offset="0" stop-color="#f4d7c2"/><stop offset="1" stop-color="#d9ad94"/></radialGradient><linearGradient id="rim" x1="0" y1="0" x2="1" y2="0"><stop offset="0" stop-color="#fff6e3" stop-opacity=".0"/><stop offset=".85" stop-color="#fff6e3" stop-opacity="0"/><stop offset="1" stop-color="#fff6e3" stop-opacity=".35"/></linearGradient><linearGradient id="hair" x1="0" y1="0" x2="0" y2="1"><stop offset="0" stop-color="#8c7665"/><stop offset="1" stop-color="#4d392a"/></linearGradient><clipPath id="face"><path d="M70 86C70 64 84 55 100 55C116 55 130 64 130 86C130 104 118 120 100 130C82 120 70 104 70 86Z"/></clipPath><radialGradient id="vig" cx="50%" cy="45%" r="70%"><stop offset=".6" stop-color="#000" stop-opacity="0"/><stop offset="1" stop-color="#000" stop-opacity=".55"/></radialGradient></defs><g><rect width="200" height="200" fill="url(#bg)"/><g stroke="#efe6d2" stroke-opacity=".22" fill="none" stroke-width="1.5"><path d="M30 40H170M100 22V40"/><path d="M30 40L18 70H42ZM170 40L158 70H182Z"/></g><g opacity=".7"><path d="M33.0 15.9L20.4 28.5" stroke="#fff6e3" stroke-opacity=".5" stroke-width=".8"/><path d="M33.0 15.9L45.6 28.5" stroke="#fff6e3" stroke-opacity=".5" stroke-width=".8"/><path d="M20.4 28.5L45.6 28.5" stroke="#fff6e3" stroke-opacity=".5" stroke-width=".8"/><path d="M20.4 28.5L23.8 43.6" stroke="#fff6e3" stroke-opacity=".5" stroke-width=".8"/><path d="M45.6 28.5L42.2 44.4" stroke="#fff6e3" stroke-opacity=".5" stroke-width=".8"/><circle cx="33.0" cy="15.9" r="1.4" fill="#fff"/><circle cx="20.4" cy="28.5" r="1.4" fill="#fff"/><circle cx="45.6" cy="28.5" r="1.4" fill="#fff"/><circle cx="23.8" cy="43.6" r="1.4" fill="#fff"/><circle cx="42.2" cy="44.4" r="1.4" fill="#fff"/></g><circle cx="100" cy="96" r="78" fill="url(#aura)"/><g fill="#563f2e"><path d="M64 98C62 58 84 44 100 44C118 44 138 58 136 98L132 106L68 106Z"/><path d="M104 46C136 28 166 52 154 94C150 114 160 126 152 138C138 116 138 94 131 72C125 60 113 53 104 52Z"/></g><path d="M8 200C14 166 46 146 84 140L100 142L116 140C154 146 186 166 192 200Z" fill="#6a2fd0"/><path d="M86 140L100 166L114 140Z" fill="#111"/><path d="M92 150L100 154L108 150L108 158L100 154L92 158Z" fill="#efe6d2"/><g fill="#fff" opacity=".7"><circle cx="30" cy="160" r="1"/><circle cx="67" cy="183" r="1.5"/><circle cx="104" cy="168" r="2"/><circle cx="141" cy="191" r="1"/><circle cx="38" cy="176" r="1.5"/><circle cx="75" cy="161" r="2"/><circle cx="112" cy="184" r="1"/><circle cx="149" cy="169" r="1.5"/><circle cx="46" cy="192" r="2"/><circle cx="83" cy="177" r="1"/><circle cx="120" cy="162" r="1.5"/><circle cx="157" cy="185" r="2"/><circle cx="54" cy="170" r="1"/><circle cx="91" cy="193" r="1.5"/><circle cx="128" cy="178" r="2"/><circle cx="165" cy="163" r="1"/></g><path d="M84 140L72 164L92 160L100 200M116 140L128 164L108 160L100 200" fill="none" stroke="#3a1a80" stroke-width="3"/><path d="M8 200C14 166 46 146 84 140L100 142L116 140C154 146 186 166 192 200" fill="none" stroke="#fff6e3" stroke-opacity=".35" stroke-width="1.5"/><path d="M89 116V142Q100 148 111 142V116Z" fill="#d9ad94"/><path d="M89 126Q100 136 111 126V132Q100 140 89 132Z" fill="#000" opacity=".15"/><ellipse cx="69.5" cy="97" rx="5" ry="8" fill="#d9ad94"/><ellipse cx="130.5" cy="97" rx="5" ry="8" fill="#d9ad94"/><path d="M70 86C70 64 84 55 100 55C116 55 130 64 130 86C130 104 118 120 100 130C82 120 70 104 70 86Z" fill="url(#skin)"/><path d="M70 86C70 64 84 55 100 55C116 55 130 64 130 86C130 104 118 120 100 130C82 120 70 104 70 86Z" fill="url(#rim)"/><ellipse cx="81" cy="107" rx="6" ry="3.4" fill="#c9726f" opacity=".18"/><ellipse cx="119" cy="107" rx="6" ry="3.4" fill="#c9726f" opacity=".18"/><clipPath id="e88"><path d="M80 95Q88 87.5 96 95Q88 101 80 95Z"/></clipPath><path d="M80 95Q88 87.5 96 95Q88 101 80 95Z" fill="#f5f1ea"/><g clip-path="url(#e88)"><circle cx="88" cy="95.5" r="4" fill="#efe6d2"/><circle cx="88" cy="95.5" r="1.8" fill="#0b0b12"/><circle cx="89.6" cy="94.2" r="1.28" fill="#fff"/></g><path d="M79.5 95Q88 87.5 96.5 95" fill="none" stroke="#1a1012" stroke-width="1.8" stroke-linecap="round"/><path d="M85.4 92.6l.9 1.6 1.7.4-1.3 1.2.3 1.7-1.6-.8-1.6.8.3-1.7-1.3-1.2 1.7-.4z" fill="#fff"/><path d="M105 95Q112 89 119 95" fill="none" stroke="#1a1012" stroke-width="2" stroke-linecap="round"/><path d="M80 83Q88 79.5 95 82" fill="none" stroke="#463326" stroke-width="2" stroke-linecap="round"/><path d="M120 84Q112 81.5 105 85" fill="none" stroke="#463326" stroke-width="2" stroke-linecap="round"/><path d="M100 99Q98 106 96 108Q99 110 102 108" fill="none" stroke="#d9ad94" stroke-width="1.6" stroke-linecap="round"/><path d="M91 112Q100 112 109 112Q107 123 100 123Q93 123 91 112Z" fill="#4a1a22"/><path d="M94 119Q100 116 106 119Q103 122 100 122Q97 122 94 119Z" fill="#d86a78"/><g clip-path="url(#face)"><g fill="#000" opacity=".22" transform="translate(0 3)"><path d="M67 88C65 60 86 45 106 46C127 47 138 63 133 82C124 66 104 60 90 68C80 72 72 80 67 88Z"/></g></g><g fill="url(#hair)"><path d="M67 88C65 60 86 45 106 46C127 47 138 63 133 82C124 66 104 60 90 68C80 72 72 80 67 88Z"/></g><path d="M128 74Q150 40 140 26Q126 46 124 72Z" fill="#fbf8f0"/><path d="M126 72Q136 50 140 28" stroke="#c9c0a8" stroke-width="1" fill="none"/><path d="M84 68Q100 76 116 68" fill="none" stroke="#f3e7c9" stroke-width="1.2"/><path d="M100 72V80M94 80H106M94 80l-2 4h4zM106 80l-2 4h4z" stroke="#f3e7c9" stroke-width="1.2" fill="#f3e7c9"/><g transform="translate(150 164) rotate(20)"><rect x="-4" y="6" width="8" height="30" rx="3" fill="#1d1d26" stroke="#f3e7c9"/><circle cx="0" cy="0" r="9" fill="#f3e7c9"/><path d="M-7 -3H7M-8 1H8M-6 5H6" stroke="#000" stroke-opacity=".35"/><rect x="-5" y="8" width="10" height="3" fill="#efe6d2"/></g><rect width="200" height="200" fill="url(#vig)"/><circle cx="100" cy="100" r="97" fill="none" stroke="#f3e7c9" stroke-opacity=".35" stroke-width="1.5"/></g></svg>