<svg xmlns="http://www.w3.org/2000/svg" viewBox="0 0 200 200" role="img" aria-label="Libra ENTJ portrait"><metadata>{"id":"libra-entj","features":{"motif":"balance-scales","palette":"libra","headpiece":"white-feather","head":"angular","hair":"undercut","eyes":"sharp","mouth":"smirk","garment":"officer coat","held":"signet baton","skin":"deep","detail":"face paint"}}</metadata><defs><radialGradient id="bg" cx="50%" cy="38%" r="75%"><stop offset="0" stop-color="#2a2633"/><stop offset="1" stop-color="#0e0c14"/></radialGradient><radialGradient id="aura" cx="50%" cy="50%" r="50%"><stop offset="0" stop-color="#fff6e3" stop-opacity=".45"/><stop offset="1" stop-color="#fff6e3" stop-opacity="0"/></radialGradient><radialGradient id="skin" cx="42%" cy="35%" r="70%"><stop offset="0" stop-color="#5e3a26"/><stop offset="1" stop-color="#45281a"/></radialGradient><linearGradient id="rim" x1="0" y1="0" x2="1" y2="0"><stop offset="0" stop-color="#fff6e3" stop-opacity=".0"/><stop offset=".85" stop-color="#fff6e3" stop-opacity="0"/><stop offset="1" stop-color="#fff6e3" stop-opacity=".35"/></linearGradient><linearGradient id="hair" x1="0" y1="0" x2="0" y2="1"><stop offset="0" stop-color="#f3e8d1"/><stop offset="1" stop-color="#aca38d"/></linearGradient><clipPath id="face"><path d="M70 88C70 66 84 55 100 55C116 55 130 66 130 88L128 107L113 125Q100 131 87 125L72 107Z"/></clipPath><radialGradient id="vig" cx="50%" cy="45%" r="70%"><stop offset=".6" stop-color="#000" stop-opacity="0"/><stop offset="1" stop-color="#000" stop-opacity=".55"/></radialGradient></defs><g><rect width="200" height="200" fill="url(#bg)"/><g stroke="#efe6d2" stroke-opacity=".22" fill="none" stroke-width="1.5"><path d="M30 40H170M100 22V40"/><path d="M30 40L18 70H42ZM170 40L158 70H182Z"/></g><g opacity=".7"><path d="M33.0 15.9L20.4 28.5" stroke="#fff6e3" stroke-opacity=".5" stroke-width=".8"/><path d="M33.0 15.9L45.6 28.5" stroke="#fff6e3" stroke-opacity=".5" stroke-width=".8"/><path d="M20.4 28.5L45.6 28.5" stroke="#fff6e3" stroke-opacity=".5" stroke-width=".8"/><path d="M20.4 28.5L23.8 43.6" stroke="#fff6e3" stroke-opacity=".5" stroke-width=".8"/><path d="M45.6 28.5L42.2 44.4" stroke="#fff6e3" stroke-opacity=".5" stroke-width=".8"/><circle cx="33.0" cy="15.9" r="1.4" fill="#fff"/><circle cx="20.4" cy="28.5" r="1.4" fill="#fff"/><circle cx="45.6" cy="28.5" r="1.4" fill="#fff"/><circle cx="23.8" cy="43.6" r="1.4" fill="#fff"/><circle cx="42.2" cy="44.4" r="1.4" fill="#fff"/></g><circle cx="100" cy="96" r="78" fill="url(#aura)"/><g fill="#bfb59d"><path d="M68 96C66 66 84 52 100 52C116 52 134 66 132 96L128 100L72 100Z" opacity=".55"/></g><path d="M8 200C14 166 46 146 84 140L100 142L116 140C154 146 186 166 192 200Z" fill="#2a0f1a"/><path d="M30 166Q46 150 66 148L64 158Q44 160 34 172ZM170 166Q154 150 134 148L136 158Q156 160 166 172Z" fill="#efe6d2"/><path d="M90 142L100 152L110 142L110 200H90Z" fill="#14070d"/><g fill="#efe6d2"><circle cx="100" cy="164" r="2.6"/><circle cx="100" cy="176" r="2.6"/><circle cx="100" cy="188" r="2.6"/></g><path d="M60 200L132 146" stroke="#efe6d2" stroke-width="7" stroke-opacity=".75"/><path d="M8 200C14 166 46 146 84 140L100 142L116 140C154 146 186 166 192 200" fill="none" stroke="#fff6e3" stroke-opacity=".35" stroke-width="1.5"/><path d="M89 116V142Q100 148 111 142V116Z" fill="#45281a"/><path d="M89 126Q100 136 111 126V132Q100 140 89 132Z" fill="#000" opacity=".15"/><ellipse cx="69.5" cy="97" rx="5" ry="8" fill="#45281a"/><ellipse cx="130.5" cy="97" rx="5" ry="8" fill="#45281a"/><path d="M70 88C70 66 84 55 100 55C116 55 130 66 130 88L128 107L113 125Q100 131 87 125L72 107Z" fill="url(#skin)"/><path d="M70 88C70 66 84 55 100 55C116 55 130 66 130 88L128 107L113 125Q100 131 87 125L72 107Z" fill="url(#rim)"/><ellipse cx="81" cy="107" rx="6" ry="3.4" fill="#3f1d18" opacity=".18"/><ellipse cx="119" cy="107" rx="6" ry="3.4" fill="#3f1d18" opacity=".18"/><clipPath id="e88"><path d="M79.5 95Q88 90.5 96.5 95Q88 98.6 79.5 95Z"/></clipPath><path d="M79.5 95Q88 90.5 96.5 95Q88 98.6 79.5 95Z" fill="#f5f1ea"/><g clip-path="url(#e88)"><circle cx="88" cy="95.5" r="3.4" fill="#efe6d2"/><circle cx="88" cy="95.5" r="1.53" fill="#0b0b12"/><circle cx="89.36" cy="94.2" r="1.088" fill="#fff"/></g><path d="M79 95Q88 90.5 97 95" fill="none" stroke="#1a1012" stroke-width="1.8" stroke-linecap="round"/><clipPath id="e112"><path d="M103.5 95Q112 90.5 120.5 95Q112 98.6 103.5 95Z"/></clipPath><path d="M103.5 95Q112 90.5 120.5 95Q112 98.6 103.5 95Z" fill="#f5f1ea"/><g clip-path="url(#e112)"><circle cx="112" cy="95.5" r="3.4" fill="#efe6d2"/><circle cx="112" cy="95.5" r="1.53" fill="#0b0b12"/><circle cx="113.36" cy="94.2" r="1.088" fill="#fff"/></g><path d="M103 95Q112 90.5 121 95" fill="none" stroke="#1a1012" stroke-width="1.8" stroke-linecap="round"/><path d="M80 82Q88 79.5 95 87" fill="none" stroke="#9b937f" stroke-width="2.6" stroke-linecap="round"/><path d="M120 82Q112 79.5 105 87" fill="none" stroke="#9b937f" stroke-width="2.6" stroke-linecap="round"/><path d="M100 99Q98 106 96 108Q99 110 102 108" fill="none" stroke="#45281a" stroke-width="1.6" stroke-linecap="round"/><path d="M92 115Q101 117 109 112" fill="none" stroke="#3f1d18" stroke-width="2.4" stroke-linecap="round"/><g fill="#efe6d2"><circle cx="80" cy="104" r="1.6"/><circle cx="84" cy="106" r="1.2"/><circle cx="120" cy="104" r="1.6"/><circle cx="116" cy="106" r="1.2"/></g><g clip-path="url(#face)"><g fill="#000" opacity=".22" transform="translate(0 3)"><path d="M69 82C69 60 84 47 103 45C126 43 140 56 133 77C128 70 120 66 111 64C99 60 84 64 69 82Z"/><path d="M80 60C92 52 110 50 124 54" fill="none" stroke="#fff" stroke-opacity=".2" stroke-width="2"/></g></g><g fill="url(#hair)"><path d="M69 82C69 60 84 47 103 45C126 43 140 56 133 77C128 70 120 66 111 64C99 60 84 64 69 82Z"/><path d="M80 60C92 52 110 50 124 54" fill="none" stroke="#fff" stroke-opacity=".2" stroke-width="2"/></g><path d="M128 74Q150 40 140 26Q126 46 124 72Z" fill="#fbf8f0"/><path d="M126 72Q136 50 140 28" stroke="#c9c0a8" stroke-width="1" fill="none"/><path d="M84 68Q100 76 116 68" fill="none" stroke="#f3e7c9" stroke-width="1.2"/><path d="M100 72V80M94 80H106M94 80l-2 4h4zM106 80l-2 4h4z" stroke="#f3e7c9" stroke-width="1.2" fill="#f3e7c9"/><g transform="translate(150 152) rotate(-30)"><rect x="-3" y="-4" width="6" height="44" rx="3" fill="#24180f" stroke="#f3e7c9" stroke-width="1.2"/><rect x="-4.5" y="-6" width="9" height="6" rx="1.5" fill="#f3e7c9"/><rect x="-4.5" y="36" width="9" height="6" rx="1.5" fill="#f3e7c9"/><circle cx="0" cy="-9" r="4" fill="#efe6d2"/></g><rect width="200" height="200" fill="url(#vig)"/><circle cx="100" cy="100" r="97" fill="none" stroke="#f3e7c9" stroke-opacity=".35" stroke-width="1.5"/></g></svg>