<svg xmlns="http://www.w3.org/2000/svg" viewBox="0 0 200 200" role="img" aria-label="Pisces ENTJ portrait"><metadata>{"id":"pisces-entj","features":{"motif":"water-rings","palette":"pisces","headpiece":"fin-ornaments","head":"angular","hair":"undercut","eyes":"sharp","mouth":"smirk","garment":"officer coat","held":"signet baton","skin":"porcelain","detail":"beauty mark"}}</metadata><defs><radialGradient id="bg" cx="50%" cy="38%" r="75%"><stop offset="0" stop-color="#0e2442"/><stop offset="1" stop-color="#050b18"/></radialGradient><radialGradient id="aura" cx="50%" cy="50%" r="50%"><stop offset="0" stop-color="#b9d6ff" stop-opacity=".45"/><stop offset="1" stop-color="#b9d6ff" stop-opacity="0"/></radialGradient><radialGradient id="skin" cx="42%" cy="35%" r="70%"><stop offset="0" stop-color="#f4d7c2"/><stop offset="1" stop-color="#d9ad94"/></radialGradient><linearGradient id="rim" x1="0" y1="0" x2="1" y2="0"><stop offset="0" stop-color="#b9d6ff" stop-opacity=".0"/><stop offset=".85" stop-color="#b9d6ff" stop-opacity="0"/><stop offset="1" stop-color="#b9d6ff" stop-opacity=".35"/></linearGradient><linearGradient id="hair" x1="0" y1="0" x2="0" y2="1"><stop offset="0" stop-color="#8fb4e7"/><stop offset="1" stop-color="#5072a1"/></linearGradient><clipPath id="face"><path d="M70 88C70 66 84 55 100 55C116 55 130 66 130 88L128 107L113 125Q100 131 87 125L72 107Z"/></clipPath><radialGradient id="vig" cx="50%" cy="45%" r="70%"><stop offset=".6" stop-color="#000" stop-opacity="0"/><stop offset="1" stop-color="#000" stop-opacity=".55"/></radialGradient></defs><g><rect width="200" height="200" fill="url(#bg)"/><g fill="none" stroke="#7fa8e8" stroke-opacity=".2"><circle cx="36" cy="40" r="14"/><circle cx="168" cy="150" r="14"/><circle cx="36" cy="40" r="26"/><circle cx="168" cy="150" r="26"/><circle cx="36" cy="40" r="40"/><circle cx="168" cy="150" r="40"/></g><g opacity=".7"><path d="M17.9 18.4L22.1 26.8" stroke="#b9d6ff" stroke-opacity=".5" stroke-width=".8"/><path d="M22.1 26.8L26.3 36.0" stroke="#b9d6ff" stroke-opacity=".5" stroke-width=".8"/><path d="M26.3 36.0L33.8 45.3" stroke="#b9d6ff" stroke-opacity=".5" stroke-width=".8"/><path d="M33.8 45.3L39.7 37.7" stroke="#b9d6ff" stroke-opacity=".5" stroke-width=".8"/><path d="M39.7 37.7L45.6 33.5" stroke="#b9d6ff" stroke-opacity=".5" stroke-width=".8"/><path d="M45.6 33.5L49.8 37.7" stroke="#b9d6ff" stroke-opacity=".5" stroke-width=".8"/><path d="M49.8 37.7L46.4 42.8" stroke="#b9d6ff" stroke-opacity=".5" stroke-width=".8"/><path d="M46.4 42.8L39.7 37.7" stroke="#b9d6ff" stroke-opacity=".5" stroke-width=".8"/><path d="M31.3 25.1L22.1 26.8" stroke="#b9d6ff" stroke-opacity=".5" stroke-width=".8"/><circle cx="17.9" cy="18.4" r="1.4" fill="#fff"/><circle cx="22.1" cy="26.8" r="1.4" fill="#fff"/><circle cx="26.3" cy="36.0" r="1.4" fill="#fff"/><circle cx="33.8" cy="45.3" r="1.4" fill="#fff"/><circle cx="39.7" cy="37.7" r="1.4" fill="#fff"/><circle cx="45.6" cy="33.5" r="1.4" fill="#fff"/><circle cx="49.8" cy="37.7" r="1.4" fill="#fff"/><circle cx="46.4" cy="42.8" r="1.4" fill="#fff"/><circle cx="31.3" cy="25.1" r="1.4" fill="#fff"/></g><circle cx="100" cy="96" r="78" fill="url(#aura)"/><g fill="#597fb3"><path d="M68 96C66 66 84 52 100 52C116 52 134 66 132 96L128 100L72 100Z" opacity=".55"/></g><path d="M8 200C14 166 46 146 84 140L100 142L116 140C154 146 186 166 192 200Z" fill="#2a0f1a"/><path d="M30 166Q46 150 66 148L64 158Q44 160 34 172ZM170 166Q154 150 134 148L136 158Q156 160 166 172Z" fill="#7fa8e8"/><path d="M90 142L100 152L110 142L110 200H90Z" fill="#14070d"/><g fill="#7fa8e8"><circle cx="100" cy="164" r="2.6"/><circle cx="100" cy="176" r="2.6"/><circle cx="100" cy="188" r="2.6"/></g><path d="M60 200L132 146" stroke="#7fa8e8" stroke-width="7" stroke-opacity=".75"/><path d="M8 200C14 166 46 146 84 140L100 142L116 140C154 146 186 166 192 200" fill="none" stroke="#b9d6ff" stroke-opacity=".35" stroke-width="1.5"/><path d="M89 116V142Q100 148 111 142V116Z" fill="#d9ad94"/><path d="M89 126Q100 136 111 126V132Q100 140 89 132Z" fill="#000" opacity=".15"/><ellipse cx="69.5" cy="97" rx="5" ry="8" fill="#d9ad94"/><ellipse cx="130.5" cy="97" rx="5" ry="8" fill="#d9ad94"/><path d="M70 88C70 66 84 55 100 55C116 55 130 66 130 88L128 107L113 125Q100 131 87 125L72 107Z" fill="url(#skin)"/><path d="M70 88C70 66 84 55 100 55C116 55 130 66 130 88L128 107L113 125Q100 131 87 125L72 107Z" fill="url(#rim)"/><ellipse cx="81" cy="107" rx="6" ry="3.4" fill="#c9726f" opacity=".18"/><ellipse cx="119" cy="107" rx="6" ry="3.4" fill="#c9726f" opacity=".18"/><clipPath id="e88"><path d="M79.5 95Q88 90.5 96.5 95Q88 98.6 79.5 95Z"/></clipPath><path d="M79.5 95Q88 90.5 96.5 95Q88 98.6 79.5 95Z" fill="#f5f1ea"/><g clip-path="url(#e88)"><circle cx="88" cy="95.5" r="3.4" fill="#7fa8e8"/><circle cx="88" cy="95.5" r="1.53" fill="#0b0b12"/><circle cx="89.36" cy="94.2" r="1.088" fill="#fff"/></g><path d="M79 95Q88 90.5 97 95" fill="none" stroke="#1a1012" stroke-width="1.8" stroke-linecap="round"/><clipPath id="e112"><path d="M103.5 95Q112 90.5 120.5 95Q112 98.6 103.5 95Z"/></clipPath><path d="M103.5 95Q112 90.5 120.5 95Q112 98.6 103.5 95Z" fill="#f5f1ea"/><g clip-path="url(#e112)"><circle cx="112" cy="95.5" r="3.4" fill="#7fa8e8"/><circle cx="112" cy="95.5" r="1.53" fill="#0b0b12"/><circle cx="113.36" cy="94.2" r="1.088" fill="#fff"/></g><path d="M103 95Q112 90.5 121 95" fill="none" stroke="#1a1012" stroke-width="1.8" stroke-linecap="round"/><path d="M80 82Q88 79.5 95 87" fill="none" stroke="#486792" stroke-width="2.6" stroke-linecap="round"/><path d="M120 82Q112 79.5 105 87" fill="none" stroke="#486792" stroke-width="2.6" stroke-linecap="round"/><path d="M100 99Q98 106 96 108Q99 110 102 108" fill="none" stroke="#d9ad94" stroke-width="1.6" stroke-linecap="round"/><path d="M92 115Q101 117 109 112" fill="none" stroke="#c9726f" stroke-width="2.4" stroke-linecap="round"/><circle cx="118" cy="110" r="1.6" fill="#2a1414"/><g clip-path="url(#face)"><g fill="#000" opacity=".22" transform="translate(0 3)"><path d="M69 82C69 60 84 47 103 45C126 43 140 56 133 77C128 70 120 66 111 64C99 60 84 64 69 82Z"/><path d="M80 60C92 52 110 50 124 54" fill="none" stroke="#fff" stroke-opacity=".2" stroke-width="2"/></g></g><g fill="url(#hair)"><path d="M69 82C69 60 84 47 103 45C126 43 140 56 133 77C128 70 120 66 111 64C99 60 84 64 69 82Z"/><path d="M80 60C92 52 110 50 124 54" fill="none" stroke="#fff" stroke-opacity=".2" stroke-width="2"/></g><path d="M68 96Q52 84 54 70Q62 80 70 86Z" fill="#7fa8e8" opacity=".85"/><path d="M132 96Q148 84 146 70Q138 80 130 86Z" fill="#7fa8e8" opacity=".85"/><path d="M58 76L66 88M142 76L134 88" stroke="#fff" stroke-opacity=".4"/><g fill="none" stroke="#b9d6ff" stroke-opacity=".7"><circle cx="138" cy="52" r="3"/><circle cx="146" cy="44" r="2"/><circle cx="62" cy="50" r="2.4"/></g><g transform="translate(150 152) rotate(-30)"><rect x="-3" y="-4" width="6" height="44" rx="3" fill="#24180f" stroke="#d9e7ff" stroke-width="1.2"/><rect x="-4.5" y="-6" width="9" height="6" rx="1.5" fill="#d9e7ff"/><rect x="-4.5" y="36" width="9" height="6" rx="1.5" fill="#d9e7ff"/><circle cx="0" cy="-9" r="4" fill="#7fa8e8"/></g><rect width="200" height="200" fill="url(#vig)"/><circle cx="100" cy="100" r="97" fill="none" stroke="#d9e7ff" stroke-opacity=".35" stroke-width="1.5"/></g></svg>