<svg xmlns="http://www.w3.org/2000/svg" viewBox="0 0 200 200" role="img" aria-label="Sagittarius ENFP portrait"><metadata>{"id":"sagittarius-enfp","features":{"motif":"star-map","palette":"sagittarius","headpiece":"star-circlet","head":"round","hair":"curls","eyes":"sparkle","mouth":"grin","garment":"hoodie","held":"sparkler","skin":"tan","detail":"face paint"}}</metadata><defs><radialGradient id="bg" cx="50%" cy="38%" r="75%"><stop offset="0" stop-color="#0f1a44"/><stop offset="1" stop-color="#050818"/></radialGradient><radialGradient id="aura" cx="50%" cy="50%" r="50%"><stop offset="0" stop-color="#a9bbff" stop-opacity=".45"/><stop offset="1" stop-color="#a9bbff" stop-opacity="0"/></radialGradient><radialGradient id="skin" cx="42%" cy="35%" r="70%"><stop offset="0" stop-color="#b97d56"/><stop offset="1" stop-color="#955c3c"/></radialGradient><linearGradient id="rim" x1="0" y1="0" x2="1" y2="0"><stop offset="0" stop-color="#a9bbff" stop-opacity=".0"/><stop offset=".85" stop-color="#a9bbff" stop-opacity="0"/><stop offset="1" stop-color="#a9bbff" stop-opacity=".35"/></linearGradient><linearGradient id="hair" x1="0" y1="0" x2="0" y2="1"><stop offset="0" stop-color="#dde1f5"/><stop offset="1" stop-color="#989cae"/></linearGradient><clipPath id="face"><path d="M68 92C68 68 83 56 100 56C117 56 132 68 132 92C132 114 118 127 100 127C82 127 68 114 68 92Z"/></clipPath><radialGradient id="vig" cx="50%" cy="45%" r="70%"><stop offset=".6" stop-color="#000" stop-opacity="0"/><stop offset="1" stop-color="#000" stop-opacity=".55"/></radialGradient></defs><g><rect width="200" height="200" fill="url(#bg)"/><g fill="#fff"><circle cx="0" cy="0" r="0.6" opacity="0.3"/><circle cx="53" cy="37" r="1" opacity="0.44999999999999996"/><circle cx="106" cy="74" r="1.4" opacity="0.6"/><circle cx="159" cy="111" r="0.6" opacity="0.75"/><circle cx="12" cy="18" r="1" opacity="0.3"/><circle cx="65" cy="55" r="1.4" opacity="0.44999999999999996"/><circle cx="118" cy="92" r="0.6" opacity="0.6"/><circle cx="171" cy="129" r="1" opacity="0.75"/><circle cx="24" cy="36" r="1.4" opacity="0.3"/><circle cx="77" cy="73" r="0.6" opacity="0.44999999999999996"/><circle cx="130" cy="110" r="1" opacity="0.6"/><circle cx="183" cy="17" r="1.4" opacity="0.75"/><circle cx="36" cy="54" r="0.6" opacity="0.3"/><circle cx="89" cy="91" r="1" opacity="0.44999999999999996"/><circle cx="142" cy="128" r="1.4" opacity="0.6"/><circle cx="195" cy="35" r="0.6" opacity="0.75"/><circle cx="48" cy="72" r="1" opacity="0.3"/><circle cx="101" cy="109" r="1.4" opacity="0.44999999999999996"/><circle cx="154" cy="16" r="0.6" opacity="0.6"/><circle cx="7" cy="53" r="1" opacity="0.75"/><circle cx="60" cy="90" r="1.4" opacity="0.3"/><circle cx="113" cy="127" r="0.6" opacity="0.44999999999999996"/></g><path d="M14 30L40 18L70 26M130 20L160 30L186 18" fill="none" stroke="#6f8cff" stroke-opacity=".3"/><g opacity=".7"><path d="M19.6 40.2L27.1 33.5" stroke="#a9bbff" stroke-opacity=".5" stroke-width=".8"/><path d="M27.1 33.5L34.7 35.2" stroke="#a9bbff" stroke-opacity=".5" stroke-width=".8"/><path d="M34.7 35.2L33.0 26.0" stroke="#a9bbff" stroke-opacity=".5" stroke-width=".8"/><path d="M33.0 26.0L27.1 33.5" stroke="#a9bbff" stroke-opacity=".5" stroke-width=".8"/><path d="M33.0 26.0L41.4 22.6" stroke="#a9bbff" stroke-opacity=".5" stroke-width=".8"/><path d="M41.4 22.6L48.1 15.9" stroke="#a9bbff" stroke-opacity=".5" stroke-width=".8"/><path d="M34.7 35.2L40.6 42.8" stroke="#a9bbff" stroke-opacity=".5" stroke-width=".8"/><circle cx="19.6" cy="40.2" r="1.4" fill="#fff"/><circle cx="27.1" cy="33.5" r="1.4" fill="#fff"/><circle cx="34.7" cy="35.2" r="1.4" fill="#fff"/><circle cx="33.0" cy="26.0" r="1.4" fill="#fff"/><circle cx="41.4" cy="22.6" r="1.4" fill="#fff"/><circle cx="48.1" cy="15.9" r="1.4" fill="#fff"/><circle cx="40.6" cy="42.8" r="1.4" fill="#fff"/></g><circle cx="100" cy="96" r="78" fill="url(#aura)"/><g fill="#a9aec2"><g><circle cx="64.4" cy="104.2" r="14"/><circle cx="60.5" cy="92.3" r="14"/><circle cx="60.5" cy="79.7" r="14"/><circle cx="64.4" cy="67.8" r="14"/><circle cx="71.7" cy="57.7" r="14"/><circle cx="81.8" cy="50.4" r="14"/><circle cx="93.7" cy="46.5" r="14"/><circle cx="106.3" cy="46.5" r="14"/><circle cx="118.2" cy="50.4" r="14"/><circle cx="128.3" cy="57.7" r="14"/><circle cx="135.6" cy="67.8" r="14"/><circle cx="139.5" cy="79.7" r="14"/><circle cx="139.5" cy="92.3" r="14"/><circle cx="135.6" cy="104.2" r="14"/></g></g><path d="M8 200C14 166 46 146 84 140L100 142L116 140C154 146 186 166 192 200Z" fill="#e0784a"/><path d="M70 146Q100 166 130 146Q122 136 116 140Q100 152 84 140Q78 136 70 146Z" fill="#c45e33"/><path d="M92 152V176M108 152V176" stroke="#f3efe6" stroke-width="2" stroke-linecap="round"/><circle cx="92" cy="178" r="2" fill="#6f8cff"/><circle cx="108" cy="178" r="2" fill="#6f8cff"/><path d="M54 176l8 -4 4 8 -8 4z" fill="#6f8cff" opacity=".8"/><circle cx="146" cy="180" r="5" fill="none" stroke="#6f8cff" stroke-width="2"/><path d="M8 200C14 166 46 146 84 140L100 142L116 140C154 146 186 166 192 200" fill="none" stroke="#a9bbff" stroke-opacity=".35" stroke-width="1.5"/><path d="M89 116V142Q100 148 111 142V116Z" fill="#955c3c"/><path d="M89 126Q100 136 111 126V132Q100 140 89 132Z" fill="#000" opacity=".15"/><ellipse cx="69.5" cy="97" rx="5" ry="8" fill="#955c3c"/><ellipse cx="130.5" cy="97" rx="5" ry="8" fill="#955c3c"/><path d="M68 92C68 68 83 56 100 56C117 56 132 68 132 92C132 114 118 127 100 127C82 127 68 114 68 92Z" fill="url(#skin)"/><path d="M68 92C68 68 83 56 100 56C117 56 132 68 132 92C132 114 118 127 100 127C82 127 68 114 68 92Z" fill="url(#rim)"/><ellipse cx="81" cy="107" rx="6" ry="3.4" fill="#7f3c35" opacity=".18"/><ellipse cx="119" cy="107" rx="6" ry="3.4" fill="#7f3c35" opacity=".18"/><clipPath id="e88"><path d="M79.5 95Q88 86.875 96.5 95Q88 101.5 79.5 95Z"/></clipPath><path d="M79.5 95Q88 86.875 96.5 95Q88 101.5 79.5 95Z" fill="#f5f1ea"/><g clip-path="url(#e88)"><circle cx="88" cy="95.5" r="4.4" fill="#6f8cff"/><circle cx="88" cy="95.5" r="1.9800000000000002" fill="#0b0b12"/><circle cx="89.76" cy="94.2" r="1.4080000000000001" fill="#fff"/></g><path d="M79 95Q88 86.875 97 95" fill="none" stroke="#1a1012" stroke-width="1.8" stroke-linecap="round"/><path d="M85.4 92.6l.9 1.6 1.7.4-1.3 1.2.3 1.7-1.6-.8-1.6.8.3-1.7-1.3-1.2 1.7-.4z" fill="#fff"/><clipPath id="e112"><path d="M103.5 95Q112 86.875 120.5 95Q112 101.5 103.5 95Z"/></clipPath><path d="M103.5 95Q112 86.875 120.5 95Q112 101.5 103.5 95Z" fill="#f5f1ea"/><g clip-path="url(#e112)"><circle cx="112" cy="95.5" r="4.4" fill="#6f8cff"/><circle cx="112" cy="95.5" r="1.9800000000000002" fill="#0b0b12"/><circle cx="113.76" cy="94.2" r="1.4080000000000001" fill="#fff"/></g><path d="M103 95Q112 86.875 121 95" fill="none" stroke="#1a1012" stroke-width="1.8" stroke-linecap="round"/><path d="M109.4 92.6l.9 1.6 1.7.4-1.3 1.2.3 1.7-1.6-.8-1.6.8.3-1.7-1.3-1.2 1.7-.4z" fill="#fff"/><path d="M80 83Q88 79.5 95 82" fill="none" stroke="#898d9d" stroke-width="2" stroke-linecap="round"/><path d="M120 83Q112 79.5 105 82" fill="none" stroke="#898d9d" stroke-width="2" stroke-linecap="round"/><path d="M100 99Q98 106 96 108Q99 110 102 108" fill="none" stroke="#955c3c" stroke-width="1.6" stroke-linecap="round"/><path d="M90 112Q100 123 110 112Z" fill="#fff" stroke="#7f3c35" stroke-width="2" stroke-linejoin="round"/><g fill="#6f8cff"><circle cx="80" cy="104" r="1.6"/><circle cx="84" cy="106" r="1.2"/><circle cx="120" cy="104" r="1.6"/><circle cx="116" cy="106" r="1.2"/></g><g clip-path="url(#face)"><g fill="#000" opacity=".22" transform="translate(0 3)"><g><circle cx="70.4" cy="67.5" r="10"/><circle cx="75.7" cy="60.6" r="10"/><circle cx="86.4" cy="55.7" r="10"/><circle cx="100.0" cy="54.0" r="10"/><circle cx="113.6" cy="55.7" r="10"/><circle cx="124.3" cy="60.6" r="10"/><circle cx="129.6" cy="67.5" r="10"/></g></g></g><g fill="url(#hair)"><g><circle cx="70.4" cy="67.5" r="10"/><circle cx="75.7" cy="60.6" r="10"/><circle cx="86.4" cy="55.7" r="10"/><circle cx="100.0" cy="54.0" r="10"/><circle cx="113.6" cy="55.7" r="10"/><circle cx="124.3" cy="60.6" r="10"/><circle cx="129.6" cy="67.5" r="10"/></g></g><path d="M70 72Q100 62 130 72" fill="none" stroke="#d6defe" stroke-width="1.6"/><g fill="#a9bbff"><circle cx="76" cy="69" r="1.8"/><circle cx="88" cy="66.17157287525382" r="1.8"/><circle cx="100" cy="65" r="3"/><circle cx="112" cy="66.17157287525382" r="1.8"/><circle cx="124" cy="69" r="1.8"/></g><path d="M60 54L140 40" stroke="#d6defe" stroke-width="2"/><path d="M140 40l-8-3 2 6zM60 54l5 -4M60 54l5 3" stroke="#d6defe" stroke-width="2" fill="#d6defe"/><g transform="translate(146 172) rotate(-25)"><path d="M0 0V30" stroke="#8a8f9c" stroke-width="2"/><g stroke="#6f8cff" stroke-width="1.6" stroke-linecap="round"><path d="M4.0 0.0L10.0 0.0"/><path d="M3.2 2.4L10.5 7.6"/><path d="M1.2 3.8L4.9 15.2"/><path d="M-1.2 3.8L-3.1 9.5"/><path d="M-3.2 2.4L-10.5 7.6"/><path d="M-4.0 0.0L-16.0 0.0"/><path d="M-3.2 -2.4L-8.1 -5.9"/><path d="M-1.2 -3.8L-4.0 -12.4"/><path d="M1.2 -3.8L4.9 -15.2"/><path d="M3.2 -2.4L8.1 -5.9"/></g><circle r="3" fill="#fff"/></g><rect width="200" height="200" fill="url(#vig)"/><circle cx="100" cy="100" r="97" fill="none" stroke="#d6defe" stroke-opacity=".35" stroke-width="1.5"/></g></svg>