<svg xmlns="http://www.w3.org/2000/svg" viewBox="0 0 200 200" role="img" aria-label="Virgo ESTP portrait"><metadata>{"id":"virgo-estp","features":{"motif":"precision-grid","palette":"virgo","headpiece":"silver-circlet","head":"heart","hair":"mohawk","eyes":"confident","mouth":"grin","garment":"leather jacket","held":"racing goggles","skin":"light","detail":"beauty mark"}}</metadata><defs><radialGradient id="bg" cx="50%" cy="38%" r="75%"><stop offset="0" stop-color="#1c2230"/><stop offset="1" stop-color="#090c14"/></radialGradient><radialGradient id="aura" cx="50%" cy="50%" r="50%"><stop offset="0" stop-color="#e8eef9" stop-opacity=".45"/><stop offset="1" stop-color="#e8eef9" stop-opacity="0"/></radialGradient><radialGradient id="skin" cx="42%" cy="35%" r="70%"><stop offset="0" stop-color="#eebf9d"/><stop offset="1" stop-color="#cf9a78"/></radialGradient><linearGradient id="rim" x1="0" y1="0" x2="1" y2="0"><stop offset="0" stop-color="#e8eef9" stop-opacity=".0"/><stop offset=".85" stop-color="#e8eef9" stop-opacity="0"/><stop offset="1" stop-color="#e8eef9" stop-opacity=".35"/></linearGradient><linearGradient id="hair" x1="0" y1="0" x2="0" y2="1"><stop offset="0" stop-color="#d5d9e1"/><stop offset="1" stop-color="#91949c"/></linearGradient><clipPath id="face"><path d="M70 86C70 64 84 55 100 55C116 55 130 64 130 86C130 104 118 120 100 130C82 120 70 104 70 86Z"/></clipPath><radialGradient id="vig" cx="50%" cy="45%" r="70%"><stop offset=".6" stop-color="#000" stop-opacity="0"/><stop offset="1" stop-color="#000" stop-opacity=".55"/></radialGradient></defs><g><rect width="200" height="200" fill="url(#bg)"/><g stroke="#c7cedb" stroke-opacity=".12"><path d="M0 0V200M0 0H200"/><path d="M25 0V200M0 25H200"/><path d="M50 0V200M0 50H200"/><path d="M75 0V200M0 75H200"/><path d="M100 0V200M0 100H200"/><path d="M125 0V200M0 125H200"/><path d="M150 0V200M0 150H200"/><path d="M175 0V200M0 175H200"/><path d="M200 0V200M0 200H200"/></g><circle cx="100" cy="92" r="70" fill="none" stroke="#c7cedb" stroke-opacity=".18" stroke-dasharray="1 4"/><g opacity=".7"><path d="M17.0 22.6L24.6 26.0" stroke="#e8eef9" stroke-opacity=".5" stroke-width=".8"/><path d="M24.6 26.0L32.2 24.3" stroke="#e8eef9" stroke-opacity=".5" stroke-width=".8"/><path d="M32.2 24.3L38.0 31.0" stroke="#e8eef9" stroke-opacity=".5" stroke-width=".8"/><path d="M38.0 31.0L45.6 29.3" stroke="#e8eef9" stroke-opacity=".5" stroke-width=".8"/><path d="M38.0 31.0L35.5 40.2" stroke="#e8eef9" stroke-opacity=".5" stroke-width=".8"/><path d="M35.5 40.2L28.8 47.0" stroke="#e8eef9" stroke-opacity=".5" stroke-width=".8"/><path d="M45.6 29.3L49.0 41.9" stroke="#e8eef9" stroke-opacity=".5" stroke-width=".8"/><circle cx="17.0" cy="22.6" r="1.4" fill="#fff"/><circle cx="24.6" cy="26.0" r="1.4" fill="#fff"/><circle cx="32.2" cy="24.3" r="1.4" fill="#fff"/><circle cx="38.0" cy="31.0" r="1.4" fill="#fff"/><circle cx="45.6" cy="29.3" r="1.4" fill="#fff"/><circle cx="35.5" cy="40.2" r="1.4" fill="#fff"/><circle cx="28.8" cy="47.0" r="1.4" fill="#fff"/><circle cx="49.0" cy="41.9" r="1.4" fill="#fff"/></g><circle cx="100" cy="96" r="78" fill="url(#aura)"/><g fill="#a1a5ad"><path d="M68 96C66 66 84 54 100 54C116 54 134 66 132 96L128 100L72 100Z" opacity=".5"/></g><path d="M8 200C14 166 46 146 84 140L100 142L116 140C154 146 186 166 192 200Z" fill="#1b1b22"/><path d="M86 140L98 162L92 200M114 140L104 158L110 200" fill="none" stroke="#3b3b48" stroke-width="3"/><path d="M90 142L100 156L110 142Z" fill="#a8322a"/><path d="M104 158L112 200" stroke="#c7cedb" stroke-width="1.6" stroke-dasharray="2 2"/><path d="M70 150L60 170M130 150L140 170" stroke="#3b3b48" stroke-width="3"/><circle cx="64" cy="186" r="3" fill="#c7cedb"/><path d="M8 200C14 166 46 146 84 140L100 142L116 140C154 146 186 166 192 200" fill="none" stroke="#e8eef9" stroke-opacity=".35" stroke-width="1.5"/><path d="M89 116V142Q100 148 111 142V116Z" fill="#cf9a78"/><path d="M89 126Q100 136 111 126V132Q100 140 89 132Z" fill="#000" opacity=".15"/><ellipse cx="69.5" cy="97" rx="5" ry="8" fill="#cf9a78"/><ellipse cx="130.5" cy="97" rx="5" ry="8" fill="#cf9a78"/><path d="M70 86C70 64 84 55 100 55C116 55 130 64 130 86C130 104 118 120 100 130C82 120 70 104 70 86Z" fill="url(#skin)"/><path d="M70 86C70 64 84 55 100 55C116 55 130 64 130 86C130 104 118 120 100 130C82 120 70 104 70 86Z" fill="url(#rim)"/><ellipse cx="81" cy="107" rx="6" ry="3.4" fill="#b8615a" opacity=".18"/><ellipse cx="119" cy="107" rx="6" ry="3.4" fill="#b8615a" opacity=".18"/><clipPath id="e88"><path d="M80 95Q88 90 96 95Q88 99 80 95Z"/></clipPath><path d="M80 95Q88 90 96 95Q88 99 80 95Z" fill="#f5f1ea"/><g clip-path="url(#e88)"><circle cx="88" cy="95.5" r="3.4" fill="#c7cedb"/><circle cx="88" cy="95.5" r="1.53" fill="#0b0b12"/><circle cx="89.36" cy="94.2" r="1.088" fill="#fff"/><rect x="80" y="89.8" width="16" height="1.04" fill="#eebf9d"/></g><path d="M79.5 95Q88 90.936 96.5 95" fill="none" stroke="#1a1012" stroke-width="1.8" stroke-linecap="round"/><clipPath id="e112"><path d="M104 95Q112 90 120 95Q112 99 104 95Z"/></clipPath><path d="M104 95Q112 90 120 95Q112 99 104 95Z" fill="#f5f1ea"/><g clip-path="url(#e112)"><circle cx="112" cy="95.5" r="3.4" fill="#c7cedb"/><circle cx="112" cy="95.5" r="1.53" fill="#0b0b12"/><circle cx="113.36" cy="94.2" r="1.088" fill="#fff"/><rect x="104" y="89.8" width="16" height="1.04" fill="#eebf9d"/></g><path d="M103.5 95Q112 90.936 120.5 95" fill="none" stroke="#1a1012" stroke-width="1.8" stroke-linecap="round"/><path d="M80 83Q88 80.5 95 86" fill="none" stroke="#83868c" stroke-width="2.6" stroke-linecap="round"/><path d="M120 79Q112 76.5 105 81" fill="none" stroke="#83868c" stroke-width="2.6" stroke-linecap="round"/><path d="M100 99Q98 106 96 108Q99 110 102 108" fill="none" stroke="#cf9a78" stroke-width="1.6" stroke-linecap="round"/><path d="M90 112Q100 123 110 112Z" fill="#fff" stroke="#b8615a" stroke-width="2" stroke-linejoin="round"/><circle cx="118" cy="110" r="1.6" fill="#2a1414"/><g clip-path="url(#face)"><g fill="#000" opacity=".22" transform="translate(0 3)"><path d="M83 72L86 39L95 56L100 31L106 56L115 39L118 72C110 65 92 65 83 72Z"/></g></g><g fill="url(#hair)"><path d="M83 72L86 39L95 56L100 31L106 56L115 39L118 72C110 65 92 65 83 72Z"/></g><path d="M70 74Q100 64 130 74" fill="none" stroke="#dfe5ef" stroke-width="2"/><path d="M100 60l7 7-7 7-7-7z" fill="none" stroke="#dfe5ef" stroke-width="1.8"/><circle cx="100" cy="67" r="2.6" fill="#9fd8ff"/><path d="M128 74q6-12 2-22M128 66l5-3M129 60l4-3" stroke="#d9c58a" stroke-width="1.6" fill="none"/><g transform="translate(150 170)"><path d="M-24 0Q-26 -12 -12 -12H12Q26 -12 24 0Q22 10 10 8L4 2H-4L-10 8Q-22 10 -24 0Z" fill="#1b1b22" stroke="#dfe5ef" stroke-width="1.5"/><ellipse cx="-11" cy="-2" rx="9" ry="7" fill="#c7cedb" opacity=".85"/><ellipse cx="11" cy="-2" rx="9" ry="7" fill="#c7cedb" opacity=".85"/><path d="M-16 -5l6 -3M6 -5l6 -3" stroke="#fff" stroke-opacity=".7" stroke-width="1.6"/></g><rect width="200" height="200" fill="url(#vig)"/><circle cx="100" cy="100" r="97" fill="none" stroke="#dfe5ef" stroke-opacity=".35" stroke-width="1.5"/></g></svg>